<svg width="12" height="12" viewBox="0 0 12 12" fill="none" xmlns="http://www.w3.org/2000/svg">
<path d="M11.335 0H0.665C0.489035 0.00130834 0.320649 0.0717907 0.19622 0.19622C0.0717907 0.320649 0.00130834 0.489035 0 0.665V11.335C0.00130834 11.511 0.0717907 11.6794 0.19622 11.8038C0.320649 11.9282 0.489035 11.9987 0.665 12H6.41V7.36H4.85V5.545H6.41V4.21C6.41 2.66 7.355 1.815 8.745 1.815C9.21 1.815 9.675 1.815 10.14 1.885V3.5H9.185C8.43 3.5 8.285 3.86 8.285 4.385V5.54H10.085L9.85 7.355H8.285V12H11.335C11.511 11.9987 11.6794 11.9282 11.8038 11.8038C11.9282 11.6794 11.9987 11.511 12 11.335V0.665C11.9987 0.489035 11.9282 0.320649 11.8038 0.19622C11.6794 0.0717907 11.511 0.00130834 11.335 0V0Z" fill="#215C87"/>
</svg>
