<svg width="12" height="12" viewBox="0 0 12 12" fill="none" xmlns="http://www.w3.org/2000/svg">
<path d="M11.6949 4.90998H6.10492V7.22499H9.32492C9.02492 8.69999 7.76992 9.54498 6.10492 9.54498C5.16473 9.54498 4.26304 9.1715 3.59823 8.50668C2.93341 7.84186 2.55992 6.94018 2.55992 5.99998C2.55992 5.05979 2.93341 4.15811 3.59823 3.49329C4.26304 2.82847 5.16473 2.45498 6.10492 2.45498C6.91055 2.45612 7.69113 2.73515 8.31492 3.24498L10.0599 1.49998C9.33138 0.85748 8.45774 0.401466 7.51407 0.171127C6.57039 -0.0592128 5.5849 -0.05699 4.64227 0.177604C3.69965 0.412198 2.82807 0.872148 2.10244 1.51793C1.37681 2.16372 0.81882 2.97602 0.476418 3.88506C0.134015 4.79409 0.0174399 5.77266 0.136708 6.73669C0.255976 7.70072 0.607522 8.62138 1.16114 9.41956C1.71475 10.2177 2.45388 10.8696 3.31502 11.319C4.17615 11.7685 5.13354 12.0022 6.10492 12C9.10492 12 11.8299 9.81998 11.8299 5.99998C11.827 5.63267 11.7817 5.26692 11.6949 4.90998V4.90998Z" fill="url(#paint0_linear_45_5)"/>
<defs>
<linearGradient id="paint0_linear_45_5" x1="1.5" y1="-1" x2="12" y2="12" gradientUnits="userSpaceOnUse">
<stop stop-color="#C62C2C"/>
<stop offset="1" stop-color="white" stop-opacity="0"/>
</linearGradient>
</defs>
</svg>
