<svg width="11" height="9" viewBox="0 0 11 9" fill="none" xmlns="http://www.w3.org/2000/svg">
<path d="M3.46 8.93842C4.30457 8.94373 5.14179 8.7813 5.9231 8.46054C6.70441 8.13979 7.41425 7.6671 8.01147 7.06988C8.60868 6.47267 9.08137 5.76282 9.40213 4.98152C9.72288 4.20021 9.88531 3.36299 9.88 2.51842C9.88 2.41842 9.88 2.32342 9.88 2.22342C10.3178 1.90266 10.6967 1.5085 11 1.05842C10.5878 1.23871 10.1516 1.35829 9.705 1.41342C10.1785 1.13131 10.5337 0.687251 10.705 0.163417C10.2638 0.428137 9.77991 0.614234 9.275 0.713417C8.93496 0.3511 8.485 0.110945 7.99473 0.0301097C7.50446 -0.0507252 7.00122 0.0322665 6.56287 0.266244C6.12452 0.500221 5.77549 0.872141 5.5698 1.32446C5.36411 1.77677 5.31322 2.28427 5.425 2.76842C4.52801 2.72439 3.65036 2.49193 2.84918 2.08617C2.048 1.68041 1.34127 1.11046 0.775 0.413417C0.489461 0.909004 0.402913 1.49458 0.53288 2.05158C0.662846 2.60858 0.999615 3.09538 1.475 3.41342C1.12431 3.39989 0.781726 3.30397 0.475 3.13342V3.15842C0.471884 3.67633 0.646361 4.17968 0.969352 4.58455C1.29234 4.98943 1.74434 5.27138 2.25 5.38342C1.92382 5.47115 1.58215 5.48481 1.25 5.42342C1.39639 5.86511 1.67584 6.2507 2.05002 6.52731C2.4242 6.80392 2.8748 6.958 3.34 6.96842C2.54461 7.60868 1.55605 7.96111 0.535 7.96842C0.355977 7.96324 0.177374 7.94821 0 7.92342C1.03348 8.58187 2.2346 8.92901 3.46 8.92342" fill="#45BFE6"/>
</svg>
