<svg width="14" height="10" viewBox="0 0 14 10" fill="none" xmlns="http://www.w3.org/2000/svg">
<path d="M13.7054 1.53C13.6257 1.23402 13.4697 0.964156 13.253 0.747417C13.0362 0.530679 12.7664 0.374668 12.4704 0.295C11.3804 8.9407e-08 7.00038 0 7.00038 0C7.00038 0 2.62038 8.9407e-08 1.53038 0.295C1.2344 0.374668 0.964532 0.530679 0.747794 0.747417C0.531055 0.964156 0.375044 1.23402 0.295376 1.53C0.091849 2.64163 -0.00691724 3.76991 0.000376218 4.9C-0.00691724 6.03009 0.091849 7.15837 0.295376 8.27C0.375044 8.56598 0.531055 8.83584 0.747794 9.05258C0.964532 9.26932 1.2344 9.42533 1.53038 9.505C2.62038 9.8 7.00038 9.8 7.00038 9.8C7.00038 9.8 11.3804 9.8 12.4704 9.505C12.7664 9.42533 13.0362 9.26932 13.253 9.05258C13.4697 8.83584 13.6257 8.56598 13.7054 8.27C13.9089 7.15837 14.0077 6.03009 14.0004 4.9C14.0077 3.76991 13.9089 2.64163 13.7054 1.53V1.53ZM5.60038 7V2.8L9.23537 4.9L5.60038 7Z" fill="#C62C2C"/>
</svg>
