<svg width="100" height="100" viewBox="0 0 100 100" fill="none" xmlns="http://www.w3.org/2000/svg">
<path d="M0 14C0 7.40034 0 4.10051 2.05025 2.05025C4.10051 0 7.40034 0 14 0H86C92.5997 0 95.8995 0 97.9497 2.05025C100 4.10051 100 7.40034 100 14V86C100 92.5997 100 95.8995 97.9497 97.9497C95.8995 100 92.5997 100 86 100H14C7.40034 100 4.10051 100 2.05025 97.9497C0 95.8995 0 92.5997 0 86V14Z" fill="#2B3054"/>
<path fill-rule="evenodd" clip-rule="evenodd" d="M62.6381 80.5778H38.3355V77.7212H41.0138V73.5347L48.9083 63.008V39.3052H39.0556V47.7081C39.0556 50.6293 38.1687 52.9967 36.4212 54.7456C34.9445 56.2323 32.9928 57.1538 30.9064 57.3492C30.9811 57.445 31.0645 57.5398 31.1479 57.6329C31.7261 58.2841 32.4424 58.7981 33.2446 59.1372C34.0467 59.4763 34.9145 59.632 35.7846 59.5929C36.6889 59.6277 37.5902 59.4707 38.4295 59.1321C39.2687 58.7935 40.0268 58.2811 40.6538 57.6285C41.848 56.3596 42.4584 54.62 42.4584 52.4584V42.6891H45.4529V52.4584C45.4529 55.3822 44.5704 57.7501 42.8229 59.4963C41.0754 61.2807 38.7088 62.1865 35.7846 62.1865C32.9745 62.1865 30.6782 61.2794 28.9702 59.4906C28.3324 58.8422 27.8058 58.0932 27.4115 57.2737C25.5638 56.9842 23.8632 56.0936 22.5729 54.7399C20.8693 52.9972 20 50.6301 20 47.7081V46.095H36.0567V39.307H20V36.3652H36.0787V33.4155C36.0637 31.6272 36.425 29.8558 37.1391 28.2161C37.8531 26.5765 38.904 25.1054 40.2235 23.8982C41.5412 22.6287 43.0962 21.6312 44.7996 20.9629C46.503 20.2946 48.3214 19.9685 50.1509 20.0032C54.0004 19.9236 57.7357 21.3137 60.5964 23.8908C63.4767 26.5182 64.9388 29.7221 64.9388 33.4155V36.3652H80.9736L81 39.307H64.9388V46.095H80.9385H80.9956V47.7081C80.9956 50.6301 80.1306 52.9967 78.4226 54.7429C77.1008 56.1245 75.3538 57.0229 73.4611 57.2944C73.0633 58.1054 72.5387 58.8477 71.9069 59.4932C70.1989 61.2794 67.9069 62.1865 65.0925 62.1865C62.1683 62.1865 59.8017 61.2802 58.0586 59.4932C56.3111 57.7475 55.4242 55.3796 55.4242 52.4584V42.6891H58.4229V52.4584C58.4229 54.6213 59.0289 56.3605 60.2276 57.6281C60.8538 58.2805 61.6111 58.7928 62.4496 59.1315C63.2881 59.4701 64.1888 59.6274 65.0925 59.5929C65.9622 59.6322 66.8297 59.477 67.6318 59.1385C68.4339 58.8 69.1504 58.2869 69.729 57.6364C69.8168 57.5401 69.9003 57.441 69.9793 57.3391C67.932 57.1231 66.0224 56.2058 64.5743 54.7425C62.8268 52.9967 61.9399 50.6293 61.9399 47.7081V39.3052H51.9072V62.806L52.2979 63.3272L59.9554 73.5347V77.7212H62.6381V80.5778V80.5778ZM39.0292 79.8815H61.9399V78.4176H59.2616V73.767L51.209 63.0378V38.6088H62.6381V47.7081C62.6381 50.4378 63.4547 52.6398 65.0661 54.2534C66.5541 55.7378 68.5427 56.6131 70.6423 56.7078L71.2307 56.7517L70.9102 57.2439C70.7108 57.5456 70.4892 57.8321 70.2472 58.1009C69.6011 58.8214 68.8044 59.3908 67.9135 59.7688C67.0227 60.1468 66.0595 60.324 65.0925 60.2879C64.094 60.3242 63.0991 60.1484 62.1735 59.7721C61.2479 59.3958 60.4126 58.8276 59.7227 58.1049C58.3967 56.7043 57.7249 54.804 57.7249 52.4571V43.3868H56.1222V52.4584C56.1222 55.1881 56.9389 57.3905 58.5547 59.0037C60.1661 60.6546 62.3659 61.4901 65.0925 61.4901C67.7445 61.4901 69.8124 60.6787 71.4063 59.0094C72.0276 58.375 72.5356 57.6386 72.908 56.8325L72.987 56.659L73.1757 56.6327C74.9841 56.4122 76.6609 55.5737 77.9221 54.2591C79.4984 52.6446 80.2974 50.4418 80.2974 47.7081V46.7914H64.2406V38.6088H80.2974L80.2843 37.0589H64.2406V33.4146C64.2406 29.9254 62.8576 26.8945 60.1266 24.4062C57.3939 21.9467 53.8266 20.6209 50.1509 20.6987C46.635 20.6311 43.2362 21.9628 40.7021 24.401C39.4527 25.5445 38.4576 26.9378 37.7814 28.4906C37.1052 30.0434 36.763 31.721 36.7769 33.4146V37.0589H20.6981V38.6088H36.7549V46.7896H20.6981V47.7077C20.6981 50.4414 21.4972 52.6442 23.0735 54.2556C24.3044 55.5433 25.936 56.375 27.7012 56.6147L27.8857 56.6428L27.9647 56.8145C28.335 57.6271 28.8446 58.3686 29.4707 59.0054C31.0469 60.655 33.1721 61.4897 35.7846 61.4897C38.5156 61.4897 40.7153 60.6554 42.3267 59.0059C43.9424 57.3923 44.7591 55.1903 44.7591 52.458V43.3868H43.1522V52.4584C43.1522 54.8035 42.4848 56.7038 41.1588 58.1062C40.468 58.8291 39.6319 59.3974 38.7056 59.7737C37.7793 60.15 36.7837 60.3257 35.7846 60.2893C34.8172 60.3254 33.8537 60.1479 32.9628 59.7692C32.0718 59.3906 31.2753 58.8203 30.6299 58.0987C30.3877 57.834 30.1688 57.5489 29.9757 57.2465L29.6552 56.7499L30.2434 56.7108C32.3799 56.6418 34.4105 55.7645 35.925 54.256C37.5408 52.6398 38.3618 50.4361 38.3618 47.7081V38.6088H49.6065V63.2407L41.712 73.7674V78.418H39.0292V79.8819V79.8815ZM57.7951 78.4176H43.174V75.4908H57.7951V78.4176ZM43.8722 77.7212H57.1014V76.1871H43.8722V77.7212ZM57.255 73.9992H43.7141L50.4846 64.9983L57.255 73.9992ZM45.1104 73.3029H55.8588L50.4846 66.1557L49.5362 67.4149L45.1104 73.3029ZM71.6126 55.539C71.5599 55.539 71.5073 55.539 71.4546 55.535C70.4822 55.5516 69.5169 55.367 68.6193 54.9927C67.7217 54.6185 66.911 54.0627 66.2384 53.3603C65.0549 52.0593 64.3624 50.3862 64.2802 48.6293L64.2494 48.2535H78.6861L78.6597 48.6284C78.5816 50.3732 77.9127 52.0396 76.7629 53.3541C76.0253 54.1903 75.0803 54.8171 74.0231 55.1715C73.2444 55.422 72.4306 55.5461 71.6126 55.539V55.539ZM65.009 48.9498C65.1442 50.414 65.7532 51.7942 66.7434 52.8813C67.3546 53.5164 68.0906 54.0182 68.9052 54.3551C69.7198 54.6919 70.5953 54.8566 71.4766 54.8386H71.4941C71.5336 54.8413 71.5731 54.8413 71.6126 54.8413C72.356 54.8483 73.0957 54.7362 73.8036 54.5093C74.7464 54.194 75.5888 53.6344 76.2448 52.8874V52.8843C77.2119 51.786 77.8013 50.4065 77.9265 48.9485H65.009V48.9498ZM29.4092 55.539H29.3829C28.5195 55.5474 27.6611 55.4075 26.845 55.1254C25.8373 54.7663 24.9381 54.1557 24.2326 53.3515C23.0832 52.0381 22.4157 50.3721 22.3402 48.6284L22.3094 48.2535H36.7505L36.7197 48.6293C36.6325 50.3848 35.9406 52.056 34.7615 53.3594H34.7571C34.068 54.0769 33.2359 54.6417 32.3147 55.0172C31.3934 55.3927 30.4036 55.5704 29.4092 55.539V55.539ZM23.0691 48.9498C23.1943 50.4079 23.7836 51.7873 24.7507 52.8857C25.3776 53.6044 26.179 54.1497 27.0778 54.4689C27.819 54.7247 28.5988 54.8511 29.3829 54.8426H29.4092C30.3095 54.8784 31.2071 54.722 32.0422 54.3837C32.8772 54.0455 33.6307 53.5331 34.2522 52.8808C35.2432 51.7945 35.8521 50.4141 35.9865 48.9498H23.0691ZM62.7654 37.0589H57.6677L57.6283 36.7555C57.4 34.9799 56.7545 32.6546 55.6393 31.4529C55.0093 30.737 54.2328 30.1647 53.3624 29.7749C52.492 29.3851 51.548 29.1868 50.5944 29.1934C49.6084 29.1851 48.6315 29.3822 47.7259 29.7722C46.8202 30.1622 46.0058 30.7365 45.3343 31.4586C44.184 32.6577 43.5209 34.9821 43.2838 36.7569L43.2444 37.0589H38.296V33.4146C38.296 30.0602 39.3191 27.5645 41.51 25.561C44.1445 23.1558 47.0555 21.9365 50.1509 21.9365C53.4176 21.9365 56.4998 23.1536 59.3055 25.5535C61.6677 27.5702 62.7654 30.0681 62.7654 33.4129V37.0572V37.0589ZM58.2781 36.3621H62.0672V33.4125C62.0672 30.285 61.0487 27.9548 58.8533 26.08C56.175 23.7907 53.2508 22.6298 50.1509 22.6298C47.2311 22.6298 44.4825 23.788 41.9798 26.0721C39.9425 27.9342 38.9941 30.2665 38.9941 33.4116V36.3612H42.6384C42.9896 34.0491 43.8019 32.0505 44.8293 30.9743C45.566 30.1841 46.4589 29.5558 47.4513 29.1292C48.4438 28.7025 49.5142 28.487 50.5944 28.4962C51.6445 28.4883 52.6841 28.7057 53.643 29.1339C54.6019 29.5621 55.4579 30.191 56.153 30.9782C57.1497 32.0553 57.9356 34.0522 58.2781 36.3621V36.3621ZM56.0696 37.0589H44.8425L44.8865 36.6704C45.0314 35.4155 45.4484 33.1398 46.59 31.9969C47.0934 31.441 47.7133 31.0032 48.4056 30.7148C49.0978 30.4263 49.8452 30.2944 50.5944 30.3284C52.4034 30.3284 53.3693 30.9396 54.4231 31.9969C55.5207 33.0946 55.9027 35.4001 56.03 36.6756L56.0696 37.0589ZM45.6285 36.3621H55.2968C55.1431 35.1468 54.7831 33.3404 53.9313 32.4891C52.9609 31.5192 52.1794 31.0265 50.5944 31.0265C49.9369 30.9931 49.2802 31.107 48.6725 31.3601C48.0647 31.6131 47.5213 31.9989 47.0818 32.4891C46.4057 33.167 45.8831 34.5663 45.6285 36.3621V36.3621Z" fill="url(#paint0_linear_9_5)"/>
<defs>
<linearGradient id="paint0_linear_9_5" x1="20.0044" y1="50.2894" x2="80.9912" y2="50.2894" gradientUnits="userSpaceOnUse">
<stop offset="1" stop-color="#C2986A"/>
</linearGradient>
</defs>
</svg>
