<svg width="978" height="363" viewBox="0 0 978 363" fill="none" xmlns="http://www.w3.org/2000/svg">
<path d="M352.6 4.00015C321.1 7.60016 293.8 18.7002 267.5 38.6002C262.6 42.3002 250.3 52.3002 240.2 60.7001C213.1 83.5001 198.6 92.4002 178.8 98.4002C164.6 102.8 151.6 104.3 133 103.7C97.5 102.6 75.1 93.5001 43 66.8001C29.3 55.5002 26.7 54.0002 20 54.0002C8.6 54.0002 0 62.9002 0 74.5002C0.1 80.0001 3.4 85.3002 11.1 92.1002C44.3 121.3 70.9 135.3 105.5 141.6C113.3 143 120.5 143.4 138 143.4C155.5 143.4 162.7 143 170.5 141.6C190.8 137.9 207.8 131.6 225 121.6C238.8 113.6 247.9 106.7 275.7 83.2001C303.6 59.8001 321.2 50.4002 347 45.3002C358.8 42.9002 389.2 42.9002 401 45.3002C425.6 50.2001 444.4 59.9002 468.7 80.2001C482.2 91.5001 482.5 91.7001 488.1 92.9002C501 95.8001 513.4 84.4002 511.6 71.4002C510.7 64.5002 508.6 61.6002 498.8 53.3002C465.4 24.8002 439.4 11.4002 406 5.60016C394.8 3.60016 364.2 2.70015 352.6 4.00015Z" fill="#15182B"/>
<path d="M359.5 113C319.1 115.8 289.1 129.2 250.5 161.6C225.7 182.4 221.9 185.4 213 191.4C190.1 206.9 168.4 213.1 138 213.1C99.6999 213.1 76.5999 204.1 42.1999 175.5C27.0999 163 23.0999 161.4 13.5999 164.2C5.29989 166.7 -1.10011 176.9 0.299893 185.5C1.49989 192.6 3.99989 195.8 17.1999 206.7C54.2999 237.5 83.8999 250.2 124.7 252.9C158.7 255.2 191.1 249 217 235.4C234.8 226 244.2 219.1 276.4 192.1C312.1 162.1 335 152.9 374 152.9C412.3 152.9 435.4 161.9 469.8 190.5C484.9 203 488.9 204.6 498.4 201.8C506.7 199.3 513.1 189.1 511.7 180.5C510.6 173.8 507.9 170.2 497.2 161.2C457.8 128.3 429.5 115.9 386.6 113C378.8 112.5 372.1 112.1 371.5 112.2C371 112.2 365.6 112.6 359.5 113Z" fill="#15182B"/>
<path d="M355 222.6C316.2 227.2 287.1 240.1 255.5 266.7C228.4 289.5 221.3 295.2 213.9 300.2C198.2 310.7 182.9 317.2 165 320.7C153.2 323.1 122.8 323.1 111 320.7C86.3999 315.8 67.5999 306.1 43.2999 285.8C29.5999 274.4 29.2999 274.2 23.4999 273.1C10.4999 270.7 -1.40013 281.7 0.399867 294.6C1.29987 301.5 3.39987 304.4 13.1999 312.7C46.6999 341.3 72.1999 354.4 106.5 360.6C120.6 363.1 155.4 363.1 169.5 360.6C190 356.9 206.7 350.9 224 341C236.8 333.6 247.8 325.4 271.8 305.3C299 282.4 313.6 273.5 333.2 267.6C348.6 263 352.6 262.5 374 262.5C395.4 262.5 399.4 263 414.8 267.6C432.6 272.9 448.5 282.2 469 299.2C482.7 310.5 485.3 312 492 312C503.4 312 512 303.1 512 291.5C511.9 286.1 508.5 280.7 500.9 273.9C468.4 245.2 440.4 230.5 406.5 224.4C397.9 222.9 363.1 221.7 355 222.6Z" fill="#15182B"/>
<path d="M818.6 0.608309C787.1 4.20831 759.8 15.3083 733.5 35.2083C728.6 38.9083 716.3 48.9083 706.2 57.3083C679.1 80.1083 664.6 89.0083 644.8 95.0083C630.6 99.4083 617.6 100.908 599 100.308C563.5 99.2083 541.1 90.1083 509 63.4083C495.3 52.1083 492.7 50.6083 486 50.6083C474.6 50.6083 466 59.5083 466 71.1083C466.1 76.6083 469.4 81.9083 477.1 88.7083C510.3 117.908 536.9 131.908 571.5 138.208C579.3 139.608 586.5 140.008 604 140.008C621.5 140.008 628.7 139.608 636.5 138.208C656.8 134.508 673.8 128.208 691 118.208C704.8 110.208 713.9 103.308 741.7 79.8083C769.6 56.4083 787.2 47.0083 813 41.9083C824.8 39.5083 855.2 39.5083 867 41.9083C891.6 46.8083 910.4 56.5083 934.7 76.8083C948.2 88.1083 948.5 88.3083 954.1 89.5083C967 92.4083 979.4 81.0083 977.6 68.0083C976.7 61.1083 974.6 58.2083 964.8 49.9083C931.4 21.4083 905.4 8.00831 872 2.20831C860.8 0.208309 830.2 -0.691691 818.6 0.608309Z" fill="#15182B"/>
<path d="M825.5 109.608C785.1 112.408 755.1 125.808 716.5 158.208C691.7 179.008 687.9 182.008 679 188.008C656.1 203.508 634.4 209.708 604 209.708C565.7 209.708 542.6 200.708 508.2 172.108C493.1 159.608 489.1 158.008 479.6 160.808C471.3 163.308 464.9 173.508 466.3 182.108C467.5 189.208 470 192.408 483.2 203.308C520.3 234.108 549.9 246.808 590.7 249.508C624.7 251.808 657.1 245.608 683 232.008C700.8 222.608 710.2 215.708 742.4 188.708C778.1 158.708 801 149.508 840 149.508C878.3 149.508 901.4 158.508 935.8 187.108C950.9 199.608 954.9 201.208 964.4 198.408C972.7 195.908 979.1 185.708 977.7 177.108C976.6 170.408 973.9 166.808 963.2 157.808C923.8 124.908 895.5 112.508 852.6 109.608C844.8 109.108 838.1 108.708 837.5 108.808C837 108.808 831.6 109.208 825.5 109.608Z" fill="#15182B"/>
<path d="M821 219.208C782.2 223.808 753.1 236.708 721.5 263.308C694.4 286.108 687.3 291.808 679.9 296.808C664.2 307.308 648.9 313.808 631 317.308C619.2 319.708 588.8 319.708 577 317.308C552.4 312.408 533.6 302.708 509.3 282.408C495.6 271.008 495.3 270.808 489.5 269.708C476.5 267.308 464.6 278.308 466.4 291.208C467.3 298.108 469.4 301.008 479.2 309.308C512.7 337.908 538.2 351.008 572.5 357.208C586.6 359.708 621.4 359.708 635.5 357.208C656 353.508 672.7 347.508 690 337.608C702.8 330.208 713.8 322.008 737.8 301.908C765 279.008 779.6 270.108 799.2 264.208C814.6 259.608 818.6 259.108 840 259.108C861.4 259.108 865.4 259.608 880.8 264.208C898.6 269.508 914.5 278.808 935 295.808C948.7 307.108 951.3 308.608 958 308.608C969.4 308.608 978 299.708 978 288.108C977.9 282.708 974.5 277.308 966.9 270.508C934.4 241.808 906.4 227.108 872.5 221.008C863.9 219.508 829.1 218.308 821 219.208Z" fill="#15182B"/>
</svg>
