<svg width="227" height="217" viewBox="0 0 227 217" fill="none" xmlns="http://www.w3.org/2000/svg">
<path fill-rule="evenodd" clip-rule="evenodd" d="M140.98 138.593H85.6299V132.087H91.73V122.552L109.71 98.5769V44.5929H87.27V63.7309C87.27 70.3839 85.25 75.7759 81.27 79.7589C77.9068 83.1451 73.4618 85.2437 68.71 85.6889C68.88 85.9069 69.07 86.1229 69.26 86.3349C70.5769 87.8182 72.2082 88.9887 74.0352 89.761C75.8621 90.5333 77.8386 90.8879 79.8201 90.7989C81.8797 90.8782 83.9326 90.5205 85.844 89.7494C87.7554 88.9783 89.4819 87.8112 90.9099 86.3249C93.6299 83.4349 95.02 79.4729 95.02 74.5499V52.2999H101.84V74.5499C101.84 81.2089 99.8301 86.6019 95.8501 90.5789C91.8701 94.6429 86.4801 96.7059 79.8201 96.7059C73.4201 96.7059 68.19 94.6399 64.3 90.5659C62.8476 89.0892 61.6481 87.3834 60.75 85.5169C56.542 84.8575 52.6687 82.8291 49.73 79.7459C45.85 75.7769 43.8701 70.3859 43.8701 63.7309V60.0569H80.4399V44.5969H43.8701V37.8969H80.49V31.1789C80.4559 27.106 81.2787 23.0714 82.905 19.3371C84.5313 15.6028 86.9247 12.2522 89.9299 9.5029C92.9311 6.61137 96.4727 4.33964 100.352 2.8175C104.232 1.29537 108.373 0.552667 112.54 0.631896C121.307 0.450504 129.815 3.61662 136.33 9.4859C142.89 15.4699 146.22 22.7669 146.22 31.1789V37.8969H182.74L182.8 44.5969H146.22V60.0569H182.66H182.79V63.7309C182.79 70.3859 180.82 75.7759 176.93 79.7529C173.919 82.8995 169.941 84.9456 165.63 85.5639C164.724 87.411 163.529 89.1016 162.09 90.5719C158.2 94.6399 152.98 96.7059 146.57 96.7059C139.91 96.7059 134.52 94.6419 130.55 90.5719C126.57 86.5959 124.55 81.2029 124.55 74.5499V52.2999H131.38V74.5499C131.38 79.4759 132.76 83.4369 135.49 86.3239C136.916 87.8098 138.641 88.9767 140.551 89.748C142.461 90.5193 144.512 90.8775 146.57 90.7989C148.551 90.8885 150.527 90.5349 152.354 89.764C154.18 88.9932 155.812 87.8244 157.13 86.3429C157.33 86.1236 157.52 85.8979 157.7 85.6659C153.037 85.174 148.688 83.0846 145.39 79.7519C141.41 75.7759 139.39 70.3839 139.39 63.7309V44.5929H116.54V98.1169L117.43 99.3039L134.87 122.552V132.087H140.98V138.593ZM87.21 137.007H139.39V133.673H133.29V123.081L114.95 98.6449V43.0069H140.98V63.7309C140.98 69.9479 142.84 74.9629 146.51 78.6379C149.899 82.0187 154.428 84.0123 159.21 84.2279L160.55 84.3279L159.82 85.4489C159.366 86.1362 158.861 86.7887 158.31 87.4009C156.839 89.0418 155.024 90.3387 152.995 91.1996C150.966 92.0604 148.773 92.4641 146.57 92.3819C144.296 92.4645 142.03 92.0641 139.922 91.2071C137.814 90.3501 135.911 89.0559 134.34 87.4099C131.32 84.2199 129.79 79.8919 129.79 74.5469V53.8889H126.14V74.5499C126.14 80.7669 128 85.7829 131.68 89.4569C135.35 93.2169 140.36 95.1199 146.57 95.1199C152.61 95.1199 157.32 93.2719 160.95 89.4699C162.365 88.025 163.522 86.348 164.37 84.5119L164.55 84.1169L164.98 84.0569C169.099 83.5547 172.917 81.645 175.79 78.6509C179.38 74.9739 181.2 69.9569 181.2 63.7309V61.6429H144.63V43.0069H181.2L181.17 39.4769H144.63V31.1769C144.63 23.2299 141.48 16.3269 135.26 10.6599C129.036 5.05816 120.912 2.03863 112.54 2.21591C104.532 2.0618 96.7915 5.09487 91.02 10.6479C88.1745 13.2522 85.908 16.4256 84.3679 19.9622C82.8278 23.4988 82.0484 27.3196 82.0801 31.1769V39.4769H45.46V43.0069H82.03V61.6389H45.46V63.7299C45.46 69.9559 47.2801 74.9729 50.8701 78.6429C53.6737 81.5758 57.3895 83.4701 61.4099 84.0159L61.8301 84.0799L62.01 84.4709C62.8533 86.3217 64.0141 88.0105 65.4399 89.4609C69.0299 93.2179 73.8701 95.1189 79.8201 95.1189C86.0401 95.1189 91.05 93.2189 94.72 89.4619C98.4 85.7869 100.26 80.7719 100.26 74.5489V53.8889H96.6001V74.5499C96.6001 79.8909 95.0801 84.2189 92.0601 87.4129C90.4869 89.0593 88.5827 90.3537 86.4729 91.2107C84.3631 92.0677 82.0957 92.4679 79.8201 92.3849C77.6168 92.4673 75.4225 92.0628 73.3933 91.2005C71.3641 90.3382 69.55 89.0392 68.0801 87.3959C67.5284 86.793 67.0299 86.1436 66.5901 85.4549L65.8601 84.3239L67.2 84.2349C72.0658 84.0777 76.6905 82.0795 80.1399 78.6439C83.8199 74.9629 85.6899 69.9439 85.6899 63.7309V43.0069H111.3V99.1069L93.3201 123.082V133.674H87.21V137.008V137.007ZM129.95 133.673H96.6499V127.007H129.95V133.673ZM98.24 132.087H128.37V128.593H98.24V132.087ZM128.72 123.61H97.8799L113.3 103.11L128.72 123.61ZM101.06 122.024H125.54L113.3 105.746L111.14 108.614L101.06 122.024ZM161.42 81.5659C161.3 81.5659 161.18 81.5659 161.06 81.5569C158.845 81.5947 156.647 81.1742 154.603 80.3218C152.558 79.4695 150.712 78.2037 149.18 76.6039C146.485 73.6408 144.907 69.8302 144.72 65.8289L144.65 64.9729H177.53L177.47 65.8269C177.292 69.8006 175.769 73.5959 173.15 76.5899C171.47 78.4942 169.318 79.9218 166.91 80.7289C165.136 81.2996 163.283 81.5822 161.42 81.5659ZM146.38 66.5589C146.688 69.8937 148.075 73.0371 150.33 75.5129C151.722 76.9595 153.398 78.1023 155.254 78.8695C157.109 79.6367 159.103 80.0118 161.11 79.9709H161.15C161.24 79.9769 161.33 79.9769 161.42 79.9769C163.113 79.9929 164.798 79.7376 166.41 79.2209C168.557 78.5028 170.476 77.2282 171.97 75.5269V75.5199C174.172 73.0184 175.515 69.8766 175.8 66.5559H146.38V66.5589ZM65.3 81.5659H65.24C63.2736 81.5851 61.3185 81.2665 59.46 80.6239C57.1648 79.8061 55.1168 78.4155 53.51 76.5839C50.8922 73.5925 49.3719 69.7983 49.2 65.8269L49.1299 64.9729H82.02L81.95 65.8289C81.7512 69.827 80.1755 73.6333 77.49 76.6019H77.48C75.9106 78.2361 74.0154 79.5224 71.9172 80.3776C69.819 81.2327 67.5647 81.6376 65.3 81.5659ZM50.8601 66.5589C51.1452 69.8796 52.4874 73.0214 54.6899 75.5229C56.1178 77.1599 57.9431 78.4018 59.99 79.1289C61.6783 79.7113 63.4542 79.9992 65.24 79.9799H65.3C67.3505 80.0615 69.3947 79.7053 71.2966 78.9348C73.1986 78.1644 74.9145 76.9975 76.3301 75.5119C78.587 73.0376 79.974 69.8939 80.28 66.5589H50.8601ZM141.27 39.4769H129.66L129.57 38.7859C129.05 34.7419 127.58 29.4459 125.04 26.7089C123.605 25.0784 121.837 23.7751 119.854 22.8872C117.872 21.9994 115.722 21.5478 113.55 21.5629C111.304 21.5439 109.079 21.9928 107.017 22.881C104.954 23.7693 103.099 25.0773 101.57 26.7219C98.9501 29.4529 97.4399 34.7469 96.8999 38.7889L96.8101 39.4769H85.54V31.1769C85.54 23.5369 87.8701 17.8529 92.8601 13.2899C98.8601 7.81192 105.49 5.03491 112.54 5.03491C119.98 5.03491 127 7.80692 133.39 13.2729C138.77 17.8659 141.27 23.5549 141.27 31.1729V39.4729V39.4769ZM131.05 37.8899H139.68V31.1719C139.68 24.0489 137.36 18.7419 132.36 14.4719C126.26 9.25789 119.6 6.61392 112.54 6.61392C105.89 6.61392 99.6299 9.25192 93.9299 14.4539C89.2899 18.6949 87.1299 24.0069 87.1299 31.1699V37.8879H95.4299C96.2299 32.6219 98.0799 28.0699 100.42 25.6189C102.098 23.8192 104.131 22.3882 106.392 21.4165C108.652 20.4449 111.09 19.954 113.55 19.9749C115.942 19.9569 118.309 20.4522 120.493 21.4274C122.677 22.4026 124.627 23.835 126.21 25.6279C128.48 28.0809 130.27 32.6289 131.05 37.8899ZM126.02 39.4769H100.45L100.55 38.5919C100.88 35.7339 101.83 30.5509 104.43 27.9479C105.576 26.6819 106.988 25.6847 108.565 25.0278C110.142 24.3709 111.844 24.0705 113.55 24.1479C117.67 24.1479 119.87 25.5399 122.27 27.9479C124.77 30.4479 125.64 35.6989 125.93 38.6039L126.02 39.4769ZM102.24 37.8899H124.26C123.91 35.1219 123.09 31.0079 121.15 29.0689C118.94 26.8599 117.16 25.7379 113.55 25.7379C112.053 25.6617 110.557 25.9212 109.173 26.4976C107.789 27.0739 106.551 27.9524 105.55 29.0689C104.01 30.6129 102.82 33.7999 102.24 37.8899Z" fill="url(#paint0_linear_17_2)"/>
<path fill-rule="evenodd" clip-rule="evenodd" d="M71.4399 163.306L72.3899 162.283L78.95 160.342L77.26 162.248L71.4399 163.306Z" fill="url(#paint1_linear_17_2)"/>
<path fill-rule="evenodd" clip-rule="evenodd" d="M198.93 197.829L199.88 196.806L206.45 194.865L204.75 196.771L198.93 197.829Z" fill="url(#paint2_linear_17_2)"/>
<path fill-rule="evenodd" clip-rule="evenodd" d="M9.7199 163.17C10.0078 163.248 10.3083 163.268 10.6039 163.229C10.8996 163.189 11.1844 163.091 11.4416 162.94C11.6987 162.788 11.9232 162.587 12.1015 162.348C12.2798 162.109 12.4084 161.837 12.4799 161.547C12.55 161.252 12.5583 160.946 12.5043 160.647C12.4503 160.349 12.3352 160.064 12.1662 159.813C11.9972 159.561 11.7779 159.347 11.5221 159.183C11.2664 159.02 10.9795 158.912 10.6799 158.865C10.3875 158.778 10.0807 158.752 9.77776 158.787C9.47486 158.823 9.1822 158.919 8.91765 159.071C8.65311 159.223 8.42223 159.427 8.2387 159.67C8.05517 159.914 7.92294 160.192 7.85003 160.488C7.79396 160.787 7.79801 161.095 7.86199 161.392C7.92597 161.69 8.04851 161.971 8.22259 162.221C8.39666 162.471 8.61883 162.683 8.87591 162.846C9.13299 163.009 9.41982 163.119 9.7199 163.17ZM9.40984 160.806C9.64984 159.571 10.0798 158.971 10.6398 159.112C11.1298 159.183 11.2399 159.959 10.9899 161.194C10.7099 162.394 10.2899 162.994 9.75994 162.887C9.18994 162.781 9.08984 162.041 9.40984 160.806Z" fill="url(#paint3_linear_17_2)"/>
<path fill-rule="evenodd" clip-rule="evenodd" d="M7.84009 170.751L11.1899 173.291L15.04 171.033L11.6899 168.533L7.84009 170.751Z" fill="url(#paint4_linear_17_2)"/>
<path fill-rule="evenodd" clip-rule="evenodd" d="M17.4399 184.97C17.4399 193.156 14.4099 195.449 11.4399 195.449C8.46994 195.449 5.43994 193.156 5.43994 184.97V175.161L0.0500488 176.114V184.97C0.0500488 190.509 3.88994 196.331 11.4399 196.331C18.9599 196.331 22.8 190.509 22.8 184.97V174.808L17.4399 175.761V184.97Z" fill="url(#paint5_linear_17_2)"/>
<path fill-rule="evenodd" clip-rule="evenodd" d="M43.1101 159.813L36.54 161.754L35.5901 162.777L41.4099 161.718L43.1101 159.813Z" fill="url(#paint6_linear_17_2)"/>
<path fill-rule="evenodd" clip-rule="evenodd" d="M42.77 172.833L46.6201 170.61L43.27 168.069L39.4199 170.292L42.77 172.833Z" fill="url(#paint7_linear_17_2)"/>
<path fill-rule="evenodd" clip-rule="evenodd" d="M52.03 168.383C52.3172 168.462 52.6173 168.482 52.9126 168.443C53.2078 168.404 53.4923 168.305 53.7488 168.154C54.0053 168.003 54.2286 167.801 54.4058 167.562C54.5829 167.322 54.7103 167.05 54.78 166.76C54.8517 166.465 54.8612 166.158 54.8079 165.859C54.7545 165.56 54.6395 165.275 54.4702 165.023C54.3009 164.771 54.081 164.556 53.8245 164.394C53.5679 164.231 53.2803 164.124 52.98 164.078C52.6882 163.991 52.3818 163.964 52.0793 163.999C51.7769 164.034 51.4846 164.131 51.2207 164.283C50.9568 164.435 50.7266 164.639 50.5442 164.883C50.3618 165.126 50.231 165.405 50.1599 165.701C50.1027 166 50.1062 166.308 50.1697 166.606C50.2332 166.904 50.3555 167.186 50.5298 167.436C50.704 167.686 50.9267 167.899 51.1843 168.061C51.442 168.224 51.7294 168.333 52.03 168.383ZM51.71 166.019C51.96 164.784 52.3799 164.184 52.9399 164.325C53.4399 164.396 53.54 165.172 53.3 166.407C53.02 167.607 52.59 168.207 52.06 168.1C51.5 168 51.39 167.254 51.71 166.019Z" fill="url(#paint8_linear_17_2)"/>
<path fill-rule="evenodd" clip-rule="evenodd" d="M52.76 194.823L50.5 193.341L46.6499 195.352L50.01 197.61L52.8601 196.128L55.1599 197.61L59 195.6L55.6499 193.342L52.76 194.823Z" fill="url(#paint9_linear_17_2)"/>
<path fill-rule="evenodd" clip-rule="evenodd" d="M123.85 185.887C123.85 188.075 123.85 189.416 122.27 189.416H116.13C116.13 182.041 111.79 174.703 104.73 174.703C99.65 174.703 97.7101 177.031 96.3 179.503L98.98 183.631C100.42 179.431 102.61 175.41 104.62 175.41C107.27 175.41 109.95 180.31 110.02 189.418H91.3601V174.7L85.99 175.687V189.413H81.72V176.008L76.3601 176.961V189.416H72.1299V177.278L66.76 178.231C66.8 179.113 66.8 179.36 66.8 189.416H59.04V174.7L53.6799 175.687V189.413H45.9099V174.7L40.55 175.687V189.413H33.53C32.36 189.413 31.9099 188.072 31.9099 185.884V167.964L26.54 168.916V185.887C26.54 188.662 28.91 190.202 32.47 190.287V190.3H123.01C126.71 190.3 129.25 188.747 129.25 185.889V167.964L123.85 168.916V185.887Z" fill="url(#paint10_linear_17_2)"/>
<path fill-rule="evenodd" clip-rule="evenodd" d="M132.99 190.3H138.35V167.964L132.99 168.916V190.3Z" fill="url(#paint11_linear_17_2)"/>
<path fill-rule="evenodd" clip-rule="evenodd" d="M158.32 169.249C158.607 169.328 158.908 169.349 159.203 169.31C159.498 169.27 159.783 169.172 160.039 169.021C160.296 168.869 160.519 168.668 160.696 168.428C160.873 168.189 161.001 167.916 161.07 167.626C161.142 167.331 161.151 167.024 161.098 166.725C161.045 166.426 160.93 166.141 160.76 165.889C160.591 165.637 160.371 165.423 160.115 165.26C159.858 165.098 159.57 164.99 159.27 164.945C158.978 164.858 158.672 164.831 158.369 164.866C158.067 164.901 157.775 164.998 157.511 165.15C157.247 165.302 157.017 165.506 156.834 165.75C156.652 165.993 156.521 166.272 156.45 166.568C156.393 166.867 156.396 167.175 156.46 167.473C156.524 167.77 156.646 168.053 156.82 168.302C156.995 168.552 157.217 168.765 157.475 168.927C157.732 169.09 158.02 169.199 158.32 169.249ZM158 166.885C158.25 165.65 158.67 165.051 159.23 165.192C159.73 165.262 159.83 166.039 159.59 167.273C159.3 168.473 158.88 169.073 158.35 168.967C157.79 168.861 157.68 168.12 158 166.885Z" fill="url(#paint12_linear_17_2)"/>
<path fill-rule="evenodd" clip-rule="evenodd" d="M179 194.55L176.74 193.068L172.9 195.079L176.25 197.337L179.11 195.855L181.4 197.337L185.24 195.326L181.89 193.068L179 194.55Z" fill="url(#paint13_linear_17_2)"/>
<path fill-rule="evenodd" clip-rule="evenodd" d="M223.76 160.343L217.19 162.283L216.24 163.306L222.06 162.248L223.76 160.343Z" fill="url(#paint14_linear_17_2)"/>
<path fill-rule="evenodd" clip-rule="evenodd" d="M221.2 185.887C221.2 188.075 220.74 189.345 219.72 189.416H212.87C211.71 189.416 210.82 187.792 210.61 186.028C210.671 185.619 210.708 185.207 210.72 184.793C210.652 182.813 209.813 180.937 208.382 179.567C206.951 178.196 205.041 177.438 203.06 177.455C196.89 177.455 195.9 180.736 195.16 183.841C194.698 185.703 193.868 187.455 192.72 188.992C192.27 189.451 189.94 189.38 189.87 189.416H185.28V174.7L179.92 175.687V189.413H172.4C170.6 189.413 169.61 187.789 169.44 186.061C169.806 185.162 170.019 184.208 170.07 183.238C170.007 181.233 169.152 179.334 167.692 177.959C166.232 176.583 164.285 175.842 162.28 175.899C155.92 175.899 154.83 179.533 153.81 182.85C152.93 185.708 152.15 188.284 150.67 188.284C149.419 188.223 148.184 187.986 147 187.578C147.17 187.578 148.59 189.095 150.24 190.295C153.42 190.295 154.94 189.377 155.89 188.425C156.98 189.413 158.61 190.225 161.53 190.225C163.572 190.349 165.601 189.818 167.32 188.708C168.569 189.793 170.188 190.355 171.84 190.279V190.3H192.83C193.989 190.386 195.151 190.192 196.22 189.735C197.31 190.793 198.97 191.817 202.18 191.817C203.45 191.875 204.719 191.674 205.909 191.225C207.099 190.776 208.185 190.089 209.1 189.206C210.314 189.933 211.706 190.308 213.12 190.287V190.3H220.32C224.02 190.3 226.56 188.747 226.56 185.889V174.7L221.2 175.687V185.887ZM161.68 189.345C160.37 189.345 158.5 187.445 157.65 186.24C159.91 182.182 159.91 176.678 161.89 176.678C163.69 176.749 164.6 179.96 164.6 183.417C164.6 186.7 163.23 189.345 161.68 189.345ZM202.29 190.897C201.09 190.897 198.9 188.78 198.41 187.616C199.08 186.36 199.578 185.019 199.89 183.629C200.59 180.948 201.33 178.266 202.53 178.266C204.3 178.337 205.25 181.512 205.25 184.966C205.25 188.251 203.87 190.9 202.29 190.9V190.897Z" fill="url(#paint15_linear_17_2)"/>
<path fill-rule="evenodd" clip-rule="evenodd" d="M220.42 171.386L222.68 172.868L226.56 170.857L223.21 168.598L220.32 170.08L218.06 168.598L214.21 170.61L217.56 172.868L220.42 171.386Z" fill="url(#paint16_linear_17_2)"/>
<path fill-rule="evenodd" clip-rule="evenodd" d="M5.31006 216.6V203.991H1.41992L0.600098 202.304H11.1101L11.9299 203.991H7.19995V216.6H5.31006Z" fill="url(#paint17_linear_17_2)"/>
<path fill-rule="evenodd" clip-rule="evenodd" d="M10.8201 216.6L16.3101 202.308H18.3501L24.1899 216.6H23.1201C22.8019 216.599 22.4912 216.502 22.229 216.321C21.9668 216.141 21.7649 215.886 21.6499 215.589L20.3701 212.272H14.3999L13.2 215.572C13.0913 215.875 12.8919 216.136 12.6287 216.321C12.3655 216.505 12.0515 216.604 11.73 216.603H10.8201V216.6ZM14.9399 210.731H19.79L18.3 206.773C17.84 205.573 17.5 204.585 17.28 203.809C17.0951 204.738 16.8376 205.651 16.51 206.539L14.9399 210.731Z" fill="url(#paint18_linear_17_2)"/>
<path fill-rule="evenodd" clip-rule="evenodd" d="M25.6499 216.6V202.3H28.49L31.8799 212.42C32.1899 213.362 32.4201 214.067 32.5601 214.535C32.7201 214.015 32.9801 213.252 33.3201 212.244L36.74 202.3H39.29V216.6H38.8899C38.7025 216.6 38.517 216.564 38.3438 216.493C38.1705 216.421 38.0129 216.316 37.8801 216.184C37.7473 216.052 37.6419 215.895 37.5698 215.722C37.4977 215.549 37.4604 215.363 37.46 215.176V204.634L33.3101 216.596H31.6001L27.47 204.429V214.929C27.4705 215.147 27.4279 215.364 27.3447 215.566C27.2615 215.767 27.1393 215.951 26.9851 216.105C26.8309 216.26 26.648 216.383 26.4463 216.466C26.2446 216.55 26.0284 216.593 25.8101 216.593H25.6499V216.6Z" fill="url(#paint19_linear_17_2)"/>
<path fill-rule="evenodd" clip-rule="evenodd" d="M42.3799 216.6V202.3H51.8899L52.71 203.987H44.27V208.364H51.3501L52.1799 210.041H44.27V214.906H52.22L53.04 216.592H42.3799V216.6Z" fill="url(#paint20_linear_17_2)"/>
<path fill-rule="evenodd" clip-rule="evenodd" d="M55.6899 216.6V202.3H65.21L66.03 203.987H57.5901V208.364H64.6699L65.49 210.041H57.5901V214.906H65.54L66.3601 216.592H55.6899V216.6Z" fill="url(#paint21_linear_17_2)"/>
<path fill-rule="evenodd" clip-rule="evenodd" d="M68.9199 215.23V202.3H71.76L75.1399 212.42C75.4599 213.362 75.6801 214.067 75.8301 214.535C75.9901 214.015 76.2401 213.252 76.5901 212.244L80.01 202.3H82.5501V214.957C82.5506 215.39 82.3792 215.805 82.0735 216.112C81.7678 216.419 81.3529 216.591 80.9199 216.592H80.73V204.634L76.5801 216.596H74.8701L70.74 204.429V216.6H70.28C70.1007 216.6 69.9233 216.564 69.7578 216.495C69.5924 216.426 69.442 216.325 69.3157 216.197C69.1894 216.07 69.0894 215.919 69.0215 215.753C68.9536 215.587 68.919 215.409 68.9199 215.23Z" fill="url(#paint22_linear_17_2)"/>
<path fill-rule="evenodd" clip-rule="evenodd" d="M88.48 216.6L93.97 202.308H96.01L101.86 216.6H100.79C100.47 216.598 100.158 216.501 99.8943 216.32C99.6305 216.139 99.427 215.883 99.3101 215.585L98.04 212.272H92.0601L90.8999 215.482C90.7786 215.809 90.5605 216.091 90.2747 216.291C89.9888 216.491 89.6488 216.599 89.3 216.6H88.48ZM92.6101 210.731H97.45L95.96 206.773C95.5 205.573 95.17 204.583 94.95 203.809C94.7603 204.737 94.5029 205.649 94.1799 206.539L92.6101 210.731Z" fill="url(#paint23_linear_17_2)"/>
<path fill-rule="evenodd" clip-rule="evenodd" d="M103.11 216.6V203.124L104.86 202.304V215.132C104.86 215.519 104.706 215.891 104.432 216.165C104.159 216.439 103.787 216.594 103.4 216.596H103.11V216.6Z" fill="url(#paint24_linear_17_2)"/>
<path fill-rule="evenodd" clip-rule="evenodd" d="M113.41 216.6V203.124L115.3 202.304V208.173H122.73V203.124L124.62 202.304V215.045C124.621 215.249 124.581 215.45 124.503 215.639C124.425 215.827 124.311 215.998 124.167 216.142C124.023 216.286 123.852 216.401 123.664 216.478C123.476 216.556 123.274 216.596 123.07 216.596H122.73V209.859H115.3V214.994C115.3 215.418 115.131 215.825 114.831 216.125C114.531 216.425 114.124 216.594 113.7 216.594H113.41V216.6Z" fill="url(#paint25_linear_17_2)"/>
<path fill-rule="evenodd" clip-rule="evenodd" d="M137.15 203.124L139.04 202.304V210.561C139.084 211.722 138.918 212.882 138.55 213.984C138.211 214.849 137.591 215.575 136.79 216.046C135.777 216.618 134.622 216.893 133.46 216.84C132.323 216.885 131.192 216.647 130.17 216.148C129.346 215.717 128.701 215.009 128.35 214.148C127.936 213.001 127.75 211.784 127.8 210.565V203.128L129.69 202.308V210.556C129.647 211.484 129.766 212.412 130.04 213.3C130.264 213.879 130.685 214.361 131.23 214.66C131.863 214.996 132.573 215.161 133.29 215.138C133.823 215.191 134.362 215.135 134.873 214.972C135.384 214.809 135.856 214.544 136.26 214.192C136.85 213.562 137.15 212.35 137.15 210.556V203.128V203.124Z" fill="url(#paint26_linear_17_2)"/>
<path fill-rule="evenodd" clip-rule="evenodd" d="M141.55 212L143.33 211.844C143.386 212.469 143.588 213.072 143.92 213.604C144.284 214.105 144.784 214.491 145.36 214.716C146.053 215.007 146.799 215.151 147.55 215.14C148.201 215.152 148.849 215.043 149.46 214.818C149.951 214.652 150.382 214.346 150.7 213.936C150.962 213.582 151.102 213.153 151.1 212.712C151.108 212.287 150.97 211.873 150.71 211.537C150.364 211.145 149.918 210.854 149.42 210.694C148.586 210.416 147.738 210.183 146.88 209.994C145.93 209.8 145.004 209.501 144.12 209.102C143.503 208.803 142.978 208.343 142.6 207.771C142.26 207.241 142.082 206.622 142.09 205.992C142.092 205.271 142.307 204.567 142.71 203.969C143.147 203.322 143.772 202.823 144.5 202.541C145.333 202.208 146.223 202.042 147.12 202.053C148.082 202.035 149.037 202.209 149.93 202.565C150.689 202.865 151.339 203.391 151.79 204.071C152.229 204.742 152.475 205.521 152.5 206.323L150.68 206.46C150.661 206.07 150.564 205.687 150.394 205.336C150.224 204.984 149.984 204.67 149.69 204.413C148.965 203.901 148.085 203.656 147.2 203.72C146.32 203.648 145.441 203.869 144.7 204.349C144.46 204.523 144.265 204.751 144.129 205.014C143.994 205.277 143.922 205.569 143.92 205.865C143.913 206.104 143.958 206.341 144.053 206.561C144.148 206.78 144.291 206.975 144.47 207.133C145.342 207.66 146.312 208.006 147.32 208.151C148.401 208.362 149.462 208.667 150.49 209.063C151.225 209.371 151.862 209.875 152.33 210.52C152.734 211.12 152.943 211.83 152.93 212.553C152.928 213.319 152.699 214.068 152.27 214.703C151.811 215.399 151.157 215.945 150.39 216.273C149.525 216.657 148.586 216.849 147.64 216.833C146.53 216.866 145.424 216.674 144.39 216.268C143.55 215.918 142.834 215.326 142.33 214.568C141.833 213.803 141.562 212.913 141.55 212Z" fill="url(#paint27_linear_17_2)"/>
<path fill-rule="evenodd" clip-rule="evenodd" d="M154.86 212L156.65 211.844C156.701 212.47 156.903 213.074 157.24 213.604C157.604 214.105 158.103 214.491 158.68 214.716C159.373 215.007 160.119 215.151 160.87 215.14C161.521 215.152 162.169 215.043 162.78 214.818C163.267 214.65 163.694 214.343 164.01 213.936C164.275 213.583 164.418 213.153 164.42 212.712C164.428 212.287 164.29 211.873 164.03 211.537C163.684 211.145 163.238 210.854 162.74 210.694C161.906 210.416 161.058 210.183 160.2 209.994C159.249 209.801 158.323 209.502 157.44 209.102C156.822 208.8 156.295 208.341 155.91 207.771C155.577 207.238 155.404 206.621 155.41 205.992C155.411 205.271 155.627 204.567 156.03 203.969C156.462 203.317 157.088 202.818 157.82 202.541C158.653 202.207 159.543 202.042 160.44 202.053C161.398 202.033 162.351 202.208 163.24 202.565C164.002 202.865 164.655 203.39 165.11 204.071C165.551 204.741 165.793 205.521 165.81 206.323L164 206.46C163.979 206.07 163.881 205.688 163.711 205.337C163.541 204.986 163.302 204.672 163.01 204.413C162.285 203.901 161.405 203.656 160.52 203.72C159.64 203.648 158.761 203.869 158.02 204.349C157.779 204.522 157.582 204.75 157.445 205.013C157.308 205.276 157.234 205.568 157.23 205.865C157.225 206.105 157.272 206.342 157.369 206.561C157.465 206.781 157.609 206.976 157.79 207.133C158.661 207.663 159.63 208.01 160.64 208.151C161.721 208.363 162.782 208.668 163.81 209.063C164.545 209.371 165.181 209.875 165.65 210.52C166.046 211.123 166.252 211.832 166.24 212.553C166.237 213.318 166.011 214.065 165.59 214.703C165.128 215.397 164.475 215.942 163.71 216.273C162.845 216.657 161.906 216.848 160.96 216.833C159.85 216.867 158.744 216.675 157.71 216.268C156.868 215.921 156.151 215.328 155.65 214.568C155.149 213.804 154.876 212.913 154.86 212Z" fill="url(#paint28_linear_17_2)"/>
<path fill-rule="evenodd" clip-rule="evenodd" d="M167.26 216.6L172.75 202.308H174.78L180.63 216.6H179.6C179.269 216.6 178.947 216.5 178.674 216.313C178.401 216.127 178.19 215.862 178.07 215.554L176.81 212.272H170.83L169.67 215.495C169.552 215.82 169.337 216.1 169.055 216.298C168.772 216.495 168.435 216.601 168.09 216.6H167.26ZM171.38 210.731H176.23L174.73 206.773C174.28 205.573 173.94 204.583 173.72 203.809C173.535 204.738 173.278 205.651 172.95 206.539L171.38 210.731Z" fill="url(#paint29_linear_17_2)"/>
<path fill-rule="evenodd" clip-rule="evenodd" d="M182.47 216.6V203.124L184.36 202.304V215.004C184.359 215.425 184.191 215.829 183.893 216.126C183.595 216.424 183.191 216.592 182.77 216.593H182.47V216.6Z" fill="url(#paint30_linear_17_2)"/>
<path fill-rule="evenodd" clip-rule="evenodd" d="M187.67 216.6V202.3H189.61L197.12 213.521V203.121L198.93 202.301V216.6H196.99L189.48 205.369V215.1C189.481 215.296 189.443 215.49 189.368 215.672C189.294 215.853 189.184 216.017 189.045 216.156C188.907 216.295 188.742 216.405 188.561 216.48C188.38 216.554 188.186 216.593 187.99 216.592H187.67V216.6Z" fill="url(#paint31_linear_17_2)"/>
<path fill-rule="evenodd" clip-rule="evenodd" d="M200.54 216.6L206.03 202.308H208.07L213.92 216.6H212.9C212.565 216.599 212.238 216.497 211.961 216.307C211.685 216.117 211.472 215.849 211.35 215.536L210.09 212.272H204.12L202.93 215.559C202.818 215.865 202.616 216.128 202.349 216.315C202.083 216.501 201.765 216.601 201.44 216.6H200.54ZM204.66 210.731H209.51L208.02 206.773C207.56 205.573 207.23 204.583 207 203.809C206.82 204.739 206.562 205.652 206.23 206.539L204.66 210.731Z" fill="url(#paint32_linear_17_2)"/>
<path fill-rule="evenodd" clip-rule="evenodd" d="M215.41 216.6V202.3H217.35L224.86 213.521V203.121L226.67 202.301V216.6H224.73L217.22 205.369V215.78L215.41 216.6Z" fill="url(#paint33_linear_17_2)"/>
<path fill-rule="evenodd" clip-rule="evenodd" d="M106.72 164.6C106.577 164.509 106.422 164.438 106.26 164.39C105.168 165.544 103.797 166.396 102.28 166.866C101.633 166.879 100.991 166.762 100.39 166.523L100.36 166.423C102.029 165.853 103.626 165.093 105.12 164.157C103.59 163.89 102.81 163.319 102.81 162.214C102.842 161.536 103.124 160.893 103.603 160.411C104.081 159.929 104.722 159.642 105.4 159.606C106.13 159.606 107.04 160.291 107.04 162.306C107.041 162.576 107.003 162.846 106.93 163.106C107.173 163.135 107.406 163.22 107.61 163.354L106.72 164.6ZM106.09 163C106.126 162.889 106.143 162.773 106.14 162.657C106.13 161.8 105.54 160.791 104.81 160.791C104.565 160.775 104.322 160.845 104.122 160.987C103.922 161.129 103.776 161.335 103.71 161.572C103.71 162.216 104.66 162.712 106.09 163Z" fill="url(#paint34_linear_17_2)"/>
<defs>
<linearGradient id="paint0_linear_17_2" x1="43.8801" y1="69.6099" x2="182.78" y2="69.6099" gradientUnits="userSpaceOnUse">
<stop offset="1" stop-color="#C2986A"/>
</linearGradient>
<linearGradient id="paint1_linear_17_2" x1="18553.3" y1="1767.83" x2="18501.7" y2="1750.44" gradientUnits="userSpaceOnUse">
<stop offset="1" stop-color="#C2986A"/>
</linearGradient>
<linearGradient id="paint2_linear_17_2" x1="19664" y1="1904.66" x2="19612.5" y2="1887.31" gradientUnits="userSpaceOnUse">
<stop offset="1" stop-color="#C2986A"/>
</linearGradient>
<linearGradient id="paint3_linear_17_2" x1="11330.8" y1="2581.91" x2="11308.3" y2="2578.76" gradientUnits="userSpaceOnUse">
<stop offset="1" stop-color="#C2986A"/>
</linearGradient>
<linearGradient id="paint4_linear_17_2" x1="17266.3" y1="2792.01" x2="17215.7" y2="2781.84" gradientUnits="userSpaceOnUse">
<stop offset="1" stop-color="#C2986A"/>
</linearGradient>
<linearGradient id="paint5_linear_17_2" x1="54709.5" y1="12380.3" x2="54192.3" y2="12307.7" gradientUnits="userSpaceOnUse">
<stop offset="1" stop-color="#C2986A"/>
</linearGradient>
<linearGradient id="paint6_linear_17_2" x1="18272.3" y1="1765.68" x2="18220.8" y2="1748.33" gradientUnits="userSpaceOnUse">
<stop offset="1" stop-color="#C2986A"/>
</linearGradient>
<linearGradient id="paint7_linear_17_2" x1="17526" y1="2792.73" x2="17475.2" y2="2782.55" gradientUnits="userSpaceOnUse">
<stop offset="1" stop-color="#C2986A"/>
</linearGradient>
<linearGradient id="paint8_linear_17_2" x1="11558" y1="2611.55" x2="11535.6" y2="2608.42" gradientUnits="userSpaceOnUse">
<stop offset="1" stop-color="#C2986A"/>
</linearGradient>
<linearGradient id="paint9_linear_17_2" x1="30193.2" y1="2653.57" x2="30058.1" y2="2601.69" gradientUnits="userSpaceOnUse">
<stop offset="1" stop-color="#C2986A"/>
</linearGradient>
<linearGradient id="paint10_linear_17_2" x1="257957" y1="12809.2" x2="250134" y2="8035.39" gradientUnits="userSpaceOnUse">
<stop offset="1" stop-color="#C2986A"/>
</linearGradient>
<linearGradient id="paint11_linear_17_2" x1="13642.3" y1="12664.8" x2="13613.2" y2="12663.9" gradientUnits="userSpaceOnUse">
<stop offset="1" stop-color="#C2986A"/>
</linearGradient>
<linearGradient id="paint12_linear_17_2" x1="12165.9" y1="2615.99" x2="12143.5" y2="2612.85" gradientUnits="userSpaceOnUse">
<stop offset="1" stop-color="#C2986A"/>
</linearGradient>
<linearGradient id="paint13_linear_17_2" x1="31853" y1="2652.1" x2="31717.9" y2="2600.27" gradientUnits="userSpaceOnUse">
<stop offset="1" stop-color="#C2986A"/>
</linearGradient>
<linearGradient id="paint14_linear_17_2" x1="19811.5" y1="1767.26" x2="19760" y2="1749.89" gradientUnits="userSpaceOnUse">
<stop offset="1" stop-color="#C2986A"/>
</linearGradient>
<linearGradient id="paint15_linear_17_2" x1="207684" y1="9911.74" x2="203017" y2="7034.4" gradientUnits="userSpaceOnUse">
<stop offset="1" stop-color="#C2986A"/>
</linearGradient>
<linearGradient id="paint16_linear_17_2" x1="32430.2" y1="2523.71" x2="32295" y2="2471.84" gradientUnits="userSpaceOnUse">
<stop offset="1" stop-color="#C2986A"/>
</linearGradient>
<linearGradient id="paint17_linear_17_2" x1="27123.5" y1="8634.12" x2="26994.8" y2="8627.81" gradientUnits="userSpaceOnUse">
<stop offset="1" stop-color="#C2986A"/>
</linearGradient>
<linearGradient id="paint18_linear_17_2" x1="32181.3" y1="8634.49" x2="32002.3" y2="8624.13" gradientUnits="userSpaceOnUse">
<stop offset="1" stop-color="#C2986A"/>
</linearGradient>
<linearGradient id="paint19_linear_17_2" x1="33052.2" y1="8637.51" x2="32866.4" y2="8626.52" gradientUnits="userSpaceOnUse">
<stop offset="1" stop-color="#C2986A"/>
</linearGradient>
<linearGradient id="paint20_linear_17_2" x1="26000.2" y1="8636.19" x2="25886.5" y2="8630.94" gradientUnits="userSpaceOnUse">
<stop offset="1" stop-color="#C2986A"/>
</linearGradient>
<linearGradient id="paint21_linear_17_2" x1="26180.3" y1="8636.2" x2="26066.1" y2="8630.92" gradientUnits="userSpaceOnUse">
<stop offset="1" stop-color="#C2986A"/>
</linearGradient>
<linearGradient id="paint22_linear_17_2" x1="33661.2" y1="8637.52" x2="33475.1" y2="8626.52" gradientUnits="userSpaceOnUse">
<stop offset="1" stop-color="#C2986A"/>
</linearGradient>
<linearGradient id="paint23_linear_17_2" x1="33322.6" y1="8632.68" x2="33143.6" y2="8622.31" gradientUnits="userSpaceOnUse">
<stop offset="1" stop-color="#C2986A"/>
</linearGradient>
<linearGradient id="paint24_linear_17_2" x1="4455.15" y1="8629.89" x2="4452.01" y2="8629.86" gradientUnits="userSpaceOnUse">
<stop offset="1" stop-color="#C2986A"/>
</linearGradient>
<linearGradient id="paint25_linear_17_2" x1="28213.1" y1="8634.06" x2="28087.3" y2="8627.95" gradientUnits="userSpaceOnUse">
<stop offset="1" stop-color="#C2986A"/>
</linearGradient>
<linearGradient id="paint26_linear_17_2" x1="28501.9" y1="8781.27" x2="28375.5" y2="8775.22" gradientUnits="userSpaceOnUse">
<stop offset="1" stop-color="#C2986A"/>
</linearGradient>
<linearGradient id="paint27_linear_17_2" x1="28990.3" y1="8922.3" x2="28860.6" y2="8916.13" gradientUnits="userSpaceOnUse">
<stop offset="1" stop-color="#C2986A"/>
</linearGradient>
<linearGradient id="paint28_linear_17_2" x1="29154.8" y1="8922.49" x2="29025.2" y2="8916.32" gradientUnits="userSpaceOnUse">
<stop offset="1" stop-color="#C2986A"/>
</linearGradient>
<linearGradient id="paint29_linear_17_2" x1="34429.2" y1="8632.69" x2="34250.3" y2="8622.33" gradientUnits="userSpaceOnUse">
<stop offset="1" stop-color="#C2986A"/>
</linearGradient>
<linearGradient id="paint30_linear_17_2" x1="5033.2" y1="8629.93" x2="5029.66" y2="8629.9" gradientUnits="userSpaceOnUse">
<stop offset="1" stop-color="#C2986A"/>
</linearGradient>
<linearGradient id="paint31_linear_17_2" x1="29249.1" y1="8636.46" x2="29121.9" y2="8630.26" gradientUnits="userSpaceOnUse">
<stop offset="1" stop-color="#C2986A"/>
</linearGradient>
<linearGradient id="paint32_linear_17_2" x1="34933.5" y1="8632.68" x2="34754.4" y2="8622.31" gradientUnits="userSpaceOnUse">
<stop offset="1" stop-color="#C2986A"/>
</linearGradient>
<linearGradient id="paint33_linear_17_2" x1="29588.9" y1="8636.45" x2="29462.1" y2="8630.27" gradientUnits="userSpaceOnUse">
<stop offset="1" stop-color="#C2986A"/>
</linearGradient>
<linearGradient id="paint34_linear_17_2" x1="18150.1" y1="4108.81" x2="18097.3" y2="4099.26" gradientUnits="userSpaceOnUse">
<stop offset="1" stop-color="#C2986A"/>
</linearGradient>
</defs>
</svg>
