<svg width="422" height="139" viewBox="0 0 422 139" fill="none" xmlns="http://www.w3.org/2000/svg">
<path fill-rule="evenodd" clip-rule="evenodd" d="M379.92 138.154H324.58V131.648H330.68V122.113L348.66 98.138V44.155H326.22V63.292C326.22 69.945 324.2 75.337 320.22 79.32C316.854 82.7083 312.405 84.807 307.65 85.25C307.83 85.468 308.02 85.684 308.21 85.896C309.526 87.3801 311.158 88.5511 312.985 89.3235C314.812 90.0959 316.788 90.45 318.77 90.36C320.829 90.4376 322.882 90.0791 324.793 89.3081C326.704 88.537 328.431 87.3709 329.86 85.886C332.58 82.996 333.96 79.034 333.96 74.112V51.864H340.79V74.112C340.79 80.77 338.77 86.163 334.8 90.14C330.82 94.204 325.42 96.267 318.77 96.267C312.36 96.267 307.14 94.201 303.25 90.127C301.798 88.6503 300.598 86.9445 299.7 85.078C295.492 84.419 291.618 82.3906 288.68 79.307C284.79 75.338 282.82 69.947 282.82 63.292V59.618H319.39V44.155H282.82V37.455H319.44V30.736C319.404 26.6637 320.225 22.6294 321.85 18.8951C323.474 15.1607 325.866 11.8098 328.87 9.06003C334.936 3.22156 343.072 0.0307539 351.49 0.189023C360.255 0.00766127 368.758 3.17394 375.27 9.04303C381.84 15.027 385.17 22.324 385.17 30.736V37.455H421.69L421.74 44.155H385.17V59.614H421.61H421.74V63.288C421.74 69.943 419.76 75.333 415.87 79.31C412.863 82.4606 408.882 84.5075 404.57 85.121C403.671 86.9699 402.479 88.6611 401.04 90.129C397.15 94.197 391.93 96.263 385.52 96.263C378.86 96.263 373.47 94.2 369.49 90.129C365.52 86.153 363.5 80.76 363.5 74.108V51.864H370.33V74.112C370.33 79.037 371.71 82.998 374.44 85.885C375.866 87.3717 377.59 88.5391 379.5 89.3105C381.41 90.0819 383.462 90.4396 385.52 90.36C387.499 90.4506 389.474 90.0974 391.299 89.3264C393.125 88.5555 394.755 87.3861 396.07 85.904C396.27 85.685 396.47 85.46 396.65 85.227C391.985 84.7331 387.633 82.6441 384.33 79.313C380.36 75.338 378.34 69.945 378.34 63.292V44.155H355.49V97.678L356.38 98.865L373.82 122.113V131.648H379.92V138.154ZM326.16 136.568H378.34V133.234H372.23V122.642L353.9 98.206V42.568H379.92V63.292C379.92 69.509 381.79 74.524 385.46 78.199C388.849 81.5798 393.378 83.5734 398.16 83.789L399.5 83.889L398.76 85.01C398.312 85.7019 397.807 86.3549 397.25 86.962C395.781 88.6036 393.968 89.901 391.941 90.762C389.913 91.6229 387.721 92.0262 385.52 91.943C383.246 92.0267 380.98 91.6268 378.872 90.7697C376.763 89.9126 374.861 88.6178 373.29 86.971C370.27 83.781 368.74 79.453 368.74 74.109V53.45H365.08V74.112C365.08 80.328 366.95 85.344 370.62 89.018C374.29 92.778 379.3 94.681 385.52 94.681C391.56 94.681 396.26 92.833 399.89 89.031C401.312 87.5892 402.472 85.9117 403.32 84.073L403.5 83.679L403.93 83.618C408.046 83.1157 411.861 81.2058 414.73 78.212C418.33 74.535 420.15 69.518 420.15 63.292V61.2H383.58V42.568H420.14L420.11 39.038H383.58V30.733C383.58 22.786 380.43 15.883 374.21 10.216C367.986 4.61428 359.862 1.59474 351.49 1.77203C343.483 1.61792 335.741 4.65097 329.97 10.204C327.124 12.8084 324.858 15.9818 323.318 19.5184C321.778 23.0549 320.998 26.8758 321.03 30.733V39.038H284.41V42.568H320.98V61.2H284.41V63.291C284.41 69.517 286.23 74.534 289.82 78.204C292.622 81.1391 296.339 83.0338 300.36 83.577L300.78 83.641L300.96 84.032C301.799 85.885 302.961 87.5745 304.39 89.022C307.98 92.779 312.81 94.68 318.77 94.68C324.98 94.68 330 92.78 333.67 89.023C337.34 85.348 339.2 80.333 339.2 74.111V53.45H335.55V74.112C335.55 79.452 334.02 83.78 331.01 86.974C329.437 88.6204 327.533 89.9148 325.423 90.7718C323.313 91.6288 321.046 92.029 318.77 91.946C316.154 92.0214 313.563 91.4238 311.245 90.2103C308.927 88.9969 306.959 87.2083 305.53 85.016L304.81 83.886L306.15 83.796C311.015 83.6367 315.64 81.6388 319.09 78.205C322.77 74.524 324.63 69.505 324.63 63.292V42.568H350.25V98.668L332.27 122.643V133.235H326.16V136.569V136.568ZM368.9 133.234H335.6V126.568H368.9V133.234ZM337.19 131.648H367.31V128.154H337.19V131.648ZM367.66 123.171H336.83L352.25 102.671L367.66 123.171ZM340 121.585H364.49L352.25 105.307L350.09 108.175L340 121.585ZM400.37 81.127C400.25 81.127 400.13 81.127 400.01 81.118C397.795 81.1568 395.596 80.7367 393.552 79.8843C391.507 79.0319 389.661 77.7656 388.13 76.165C385.431 73.2029 383.851 69.3924 383.66 65.39L383.6 64.534H416.48L416.41 65.388C416.237 69.3628 414.713 73.1596 412.09 76.151C410.413 78.0595 408.26 79.4882 405.85 80.291C404.08 80.8609 402.23 81.1432 400.37 81.127ZM385.33 66.12C385.634 69.456 387.021 72.6008 389.28 75.074C390.67 76.5205 392.345 77.6633 394.198 78.4306C396.052 79.1979 398.044 79.5729 400.05 79.532H400.1C400.19 79.538 400.28 79.538 400.37 79.538C402.06 79.554 403.741 79.2987 405.35 78.782C407.497 78.0639 409.416 76.7893 410.91 75.088L410.92 75.081C413.122 72.5795 414.465 69.4378 414.75 66.117H385.33V66.12ZM304.25 81.127H304.19C302.22 81.1462 300.262 80.8276 298.4 80.185C296.107 79.3694 294.061 77.9783 292.46 76.145C289.839 73.1547 288.315 69.3605 288.14 65.388L288.08 64.534H320.96L320.89 65.39C320.7 69.3902 319.123 73.1995 316.43 76.163C314.86 77.7965 312.965 79.0823 310.867 79.9374C308.769 80.7924 306.515 81.1977 304.25 81.127ZM289.81 66.12C290.095 69.4407 291.437 72.5825 293.64 75.084C295.068 76.721 296.893 77.9629 298.94 78.69C300.628 79.2725 302.404 79.5603 304.19 79.541H304.25C306.3 79.6207 308.344 79.2636 310.246 78.4933C312.147 77.7229 313.863 76.5571 315.28 75.073C317.533 72.5963 318.92 69.4539 319.23 66.12H289.81ZM380.22 39.038H368.61L368.52 38.347C367.99 34.303 366.53 29.007 363.99 26.27C362.555 24.6404 360.786 23.3377 358.804 22.45C356.822 21.5622 354.672 21.1101 352.5 21.124C350.253 21.1059 348.027 21.5552 345.963 22.4434C343.899 23.3315 342.042 24.639 340.51 26.283C337.9 29.014 336.39 34.308 335.85 38.35L335.75 39.038H324.49V30.733C324.49 23.093 326.82 17.409 331.81 12.846C337.81 7.36802 344.43 4.59103 351.49 4.59103C358.93 4.59103 365.95 7.36302 372.34 12.829C377.71 17.422 380.22 23.111 380.22 30.729V39.034V39.038ZM370 37.452H378.63V30.733C378.63 23.61 376.3 18.304 371.3 14.033C365.21 8.81903 358.54 6.17503 351.49 6.17503C344.84 6.17503 338.58 8.81303 332.88 14.016C328.24 18.256 326.08 23.568 326.08 30.731V37.45H334.37C335.18 32.183 337.03 27.631 339.37 25.18C341.047 23.3796 343.081 21.9481 345.341 20.9764C347.602 20.0047 350.04 19.5142 352.5 19.536C354.89 19.5171 357.257 20.012 359.439 20.9873C361.622 21.9627 363.569 23.3956 365.15 25.189C367.42 27.642 369.21 32.19 370 37.452ZM364.97 39.038H339.39L339.5 38.153C339.83 35.295 340.77 30.112 343.38 27.509C344.526 26.243 345.938 25.2458 347.515 24.5889C349.091 23.932 350.794 23.6316 352.5 23.709C356.61 23.709 358.81 25.101 361.22 27.509C363.72 30.009 364.59 35.26 364.88 38.165L364.97 39.038ZM341.18 37.452H363.2C362.86 34.683 362.03 30.57 360.1 28.63C357.89 26.421 356.1 25.299 352.5 25.299C351.003 25.2228 349.507 25.4823 348.123 26.0587C346.739 26.635 345.501 27.5136 344.5 28.63C342.96 30.174 341.76 33.361 341.18 37.452Z" fill="url(#paint0_linear_17_3)"/>
<path fill-rule="evenodd" clip-rule="evenodd" d="M71.73 40.0131L72.6799 38.9891L79.24 37.0491L77.55 38.9541L71.73 40.0131Z" fill="url(#paint1_linear_17_3)"/>
<path fill-rule="evenodd" clip-rule="evenodd" d="M199.22 73.5829L200.17 72.5599L206.73 70.6189L205.04 72.5249L199.22 73.5829Z" fill="url(#paint2_linear_17_3)"/>
<path fill-rule="evenodd" clip-rule="evenodd" d="M10.01 38.924C10.2972 39.0029 10.5973 39.0232 10.8926 38.9839C11.1878 38.9445 11.4722 38.8462 11.7287 38.6948C11.9853 38.5434 12.2086 38.342 12.3857 38.1026C12.5629 37.8631 12.6902 37.5905 12.76 37.301C12.8317 37.0058 12.8412 36.6989 12.7878 36.3998C12.7345 36.1008 12.6195 35.8161 12.4502 35.5638C12.2809 35.3116 12.061 35.0973 11.8044 34.9347C11.5479 34.772 11.2603 34.6645 10.96 34.619C10.6682 34.5332 10.362 34.5074 10.06 34.5433C9.75806 34.5791 9.46644 34.6758 9.20287 34.8275C8.9393 34.9792 8.7093 35.1828 8.5266 35.4259C8.3439 35.669 8.21228 35.9466 8.13988 36.242C8.08269 36.5412 8.08613 36.8489 8.14965 37.1469C8.21317 37.4448 8.3355 37.7271 8.50976 37.977C8.68401 38.2269 8.90666 38.4395 9.1643 38.6021C9.42193 38.7647 9.70943 38.8742 10.01 38.924ZM9.68993 36.56C9.93993 35.325 10.3599 34.725 10.9299 34.866C11.4199 34.937 11.53 35.713 11.28 36.948C11 38.148 10.57 38.748 10.05 38.641C9.48004 38.535 9.37993 37.8 9.68993 36.56Z" fill="url(#paint3_linear_17_3)"/>
<path fill-rule="evenodd" clip-rule="evenodd" d="M8.12988 46.5049L11.48 49.0449L15.3301 46.7869L11.98 44.2869L8.12988 46.5049Z" fill="url(#paint4_linear_17_3)"/>
<path fill-rule="evenodd" clip-rule="evenodd" d="M17.73 60.724C17.73 68.91 14.69 71.203 11.73 71.203C8.76998 71.203 5.72998 68.91 5.72998 60.724V50.915L0.330078 51.868V60.724C0.330078 66.263 4.17998 72.085 11.73 72.085C19.24 72.085 23.0901 66.263 23.0901 60.724V50.562L17.73 51.515V60.724Z" fill="url(#paint5_linear_17_3)"/>
<path fill-rule="evenodd" clip-rule="evenodd" d="M43.3899 35.5669L36.8301 37.5079L35.8799 38.5309L41.7 37.4719L43.3899 35.5669Z" fill="url(#paint6_linear_17_3)"/>
<path fill-rule="evenodd" clip-rule="evenodd" d="M43.0601 48.587L46.9099 46.364L43.55 43.823L39.71 46.046L43.0601 48.587Z" fill="url(#paint7_linear_17_3)"/>
<path fill-rule="evenodd" clip-rule="evenodd" d="M52.31 44.1369C52.5978 44.2158 52.8986 44.2363 53.1945 44.1971C53.4904 44.1578 53.7753 44.0596 54.0326 43.9083C54.29 43.757 54.5144 43.5556 54.6926 43.3161C54.8707 43.0766 54.9991 42.8038 55.07 42.5139C55.1401 42.2187 55.1484 41.9123 55.0944 41.6138C55.0404 41.3153 54.9253 41.0312 54.7563 40.7794C54.5872 40.5275 54.368 40.3133 54.1122 40.1502C53.8565 39.9872 53.5696 39.8788 53.2699 39.8319C52.9775 39.7453 52.6705 39.7189 52.3676 39.7543C52.0647 39.7897 51.7723 39.8862 51.5077 40.0379C51.2432 40.1896 51.0121 40.3934 50.8285 40.6369C50.645 40.8805 50.5128 41.1587 50.4399 41.4549C50.3838 41.754 50.3878 42.0613 50.4518 42.3589C50.5158 42.6564 50.6386 42.9383 50.8127 43.1879C50.9867 43.4376 51.2087 43.6501 51.4657 43.813C51.7228 43.9759 52.0099 44.086 52.31 44.1369ZM51.9999 41.7729C52.2399 40.5379 52.6699 39.9379 53.2299 40.0789C53.7299 40.1499 53.83 40.9259 53.58 42.1609C53.3 43.3609 52.88 43.9609 52.35 43.8539C51.78 43.7489 51.6799 43.0079 51.9999 41.7729Z" fill="url(#paint8_linear_17_3)"/>
<path fill-rule="evenodd" clip-rule="evenodd" d="M53.04 70.577L50.79 69.095L46.9399 71.106L50.29 73.364L53.1499 71.882L55.4399 73.364L59.29 71.353L55.9399 69.095L53.04 70.577Z" fill="url(#paint9_linear_17_3)"/>
<path fill-rule="evenodd" clip-rule="evenodd" d="M124.14 61.641C124.14 63.829 124.14 65.17 122.55 65.17H116.41C116.41 57.795 112.07 50.457 105.02 50.457C99.94 50.457 97.9901 52.785 96.5801 55.257L99.27 59.385C100.71 55.185 102.9 51.164 104.91 51.164C107.56 51.164 110.24 56.064 110.31 65.172H91.6399V50.457L86.28 51.444V65.17H82.01V51.762L76.6499 52.715V65.17H72.4099V53.032L67.05 53.985C67.09 54.867 67.0901 55.114 67.0901 65.17H59.3201V50.457L53.96 51.444V65.17H46.2V50.457L40.8401 51.444V65.17H33.8201C32.6501 65.17 32.1899 63.829 32.1899 61.641V43.718L26.8301 44.67V61.641C26.8301 64.416 29.2 65.956 32.76 66.041V66.05H123.29C127 66.05 129.54 64.497 129.54 61.639V43.718L124.14 44.67V61.641Z" fill="url(#paint10_linear_17_3)"/>
<path fill-rule="evenodd" clip-rule="evenodd" d="M133.28 66.052H138.64V43.718L133.28 44.67V66.052Z" fill="url(#paint11_linear_17_3)"/>
<path fill-rule="evenodd" clip-rule="evenodd" d="M158.6 44.9999C158.888 45.079 159.189 45.0996 159.485 45.0604C159.781 45.0212 160.066 44.923 160.323 44.7717C160.58 44.6204 160.805 44.419 160.983 44.1794C161.161 43.9398 161.289 43.6669 161.36 43.3769C161.43 43.0818 161.438 42.7755 161.384 42.4771C161.33 42.1788 161.215 41.8948 161.046 41.643C160.877 41.3913 160.657 41.1772 160.402 41.0142C160.146 40.8512 159.86 40.7428 159.56 40.6959C159.268 40.6093 158.961 40.5829 158.658 40.6183C158.355 40.6537 158.062 40.7502 157.798 40.9019C157.533 41.0536 157.302 41.2574 157.119 41.501C156.935 41.7445 156.803 42.0228 156.73 42.3189C156.674 42.618 156.678 42.9252 156.742 43.2227C156.806 43.5202 156.929 43.802 157.103 44.0516C157.277 44.3011 157.499 44.5135 157.756 44.6764C158.013 44.8392 158.3 44.9492 158.6 44.9999ZM158.29 42.6359C158.53 41.4009 158.96 40.8019 159.52 40.9429C160.02 41.0129 160.12 41.7899 159.87 43.0239C159.59 44.2239 159.17 44.8239 158.64 44.7179C158.07 44.6149 157.97 43.8739 158.29 42.6389V42.6359Z" fill="url(#paint12_linear_17_3)"/>
<path fill-rule="evenodd" clip-rule="evenodd" d="M179.29 70.2999L177.03 68.8179L173.18 70.8289L176.53 73.0869L179.39 71.6049L181.69 73.0869L185.53 71.0759L182.18 68.8179L179.29 70.2999Z" fill="url(#paint13_linear_17_3)"/>
<path fill-rule="evenodd" clip-rule="evenodd" d="M224.04 36.1001L217.48 38.0401L216.53 39.0631L222.35 38.0051L224.04 36.1001Z" fill="url(#paint14_linear_17_3)"/>
<path fill-rule="evenodd" clip-rule="evenodd" d="M221.49 61.641C221.49 63.829 221.03 65.099 220 65.17H213.16C211.99 65.17 211.11 63.546 210.9 61.782C210.961 61.3729 210.998 60.9605 211.01 60.547C210.942 58.5667 210.103 56.6914 208.672 55.3206C207.241 53.9499 205.332 53.1922 203.35 53.209C197.18 53.209 196.19 56.49 195.45 59.595C194.983 61.4558 194.154 63.2062 193.01 64.746C192.55 65.205 190.22 65.134 190.15 65.17H185.57V50.457L180.2 51.444V65.17H172.69C170.89 65.17 169.9 63.546 169.72 61.818C170.088 60.919 170.305 59.965 170.36 58.995C170.297 56.9883 169.44 55.0886 167.977 53.7128C166.515 52.337 164.567 51.5973 162.56 51.656C156.21 51.656 155.12 55.29 154.09 58.607C153.21 61.465 152.44 64.041 150.95 64.041C149.7 63.9793 148.464 63.7417 147.28 63.335C147.46 63.335 148.87 64.852 150.53 66.052C153.71 66.052 155.22 65.134 156.18 64.182C157.27 65.17 158.89 65.982 161.82 65.982C163.862 66.1036 165.89 65.5724 167.61 64.465C168.855 65.5494 170.471 66.1121 172.12 66.036V66.053H193.12C194.276 66.1401 195.435 65.9463 196.5 65.488C197.6 66.546 199.26 67.57 202.47 67.57C203.739 67.6271 205.006 67.425 206.194 66.9761C207.382 66.5272 208.466 65.8409 209.38 64.959C210.597 65.6859 211.992 66.0602 213.41 66.04V66.053H220.6C224.31 66.053 226.85 64.5 226.85 61.642V50.457L221.49 51.444V61.644V61.641ZM161.96 65.099C160.66 65.099 158.79 63.194 157.94 61.999C160.2 57.941 160.2 52.437 162.17 52.437C163.97 52.508 164.89 55.719 164.89 59.176C164.89 62.453 163.51 65.1 161.96 65.1V65.099ZM202.57 66.651C201.37 66.651 199.19 64.534 198.69 63.37C199.364 62.1155 199.862 60.7738 200.17 59.383C200.88 56.702 201.62 54.02 202.82 54.02C204.58 54.091 205.54 57.266 205.54 60.72C205.54 64.005 204.16 66.651 202.57 66.651Z" fill="url(#paint15_linear_17_3)"/>
<path fill-rule="evenodd" clip-rule="evenodd" d="M220.71 47.14L222.97 48.622L226.85 46.611L223.5 44.3521L220.6 45.834L218.34 44.3521L214.5 46.364L217.85 48.622L220.71 47.14Z" fill="url(#paint16_linear_17_3)"/>
<path fill-rule="evenodd" clip-rule="evenodd" d="M5.6001 92.3499V79.7449H1.70996L0.889893 78.0579H11.3999L12.22 79.7449H7.48999V92.3499H5.6001Z" fill="url(#paint17_linear_17_3)"/>
<path fill-rule="evenodd" clip-rule="evenodd" d="M11.1101 92.3499L16.5901 78.0579H18.6299L24.48 92.3499H23.4099C23.0913 92.35 22.7803 92.2535 22.5178 92.0729C22.2553 91.8924 22.0538 91.6364 21.9399 91.3389L20.6599 88.0219H14.6799L13.49 91.3219C13.3789 91.6228 13.1787 91.8828 12.916 92.067C12.6534 92.2512 12.3408 92.3509 12.02 92.3529H11.1101V92.3499ZM15.23 86.4809H20.0701L18.5801 82.5229C18.1301 81.3229 17.7901 80.3329 17.5701 79.5589C17.3851 80.4876 17.1276 81.4004 16.8 82.2889L15.23 86.4809Z" fill="url(#paint18_linear_17_3)"/>
<path fill-rule="evenodd" clip-rule="evenodd" d="M25.9299 92.3499V78.0579H28.78L32.1599 88.1779C32.4799 89.1199 32.7001 89.8249 32.8501 90.2929C33.0101 89.7729 33.2601 89.0099 33.6101 88.0019L37.03 78.0579H39.5701V92.3499H39.1699C38.7929 92.3488 38.432 92.1983 38.1658 91.9314C37.8996 91.6644 37.75 91.3028 37.75 90.9259V80.3879L33.6001 92.3499H31.8899L27.76 80.1829V90.6829C27.7589 91.1249 27.5824 91.5484 27.2693 91.8604C26.9562 92.1724 26.5321 92.3474 26.0901 92.3468H25.9299V92.3499Z" fill="url(#paint19_linear_17_3)"/>
<path fill-rule="evenodd" clip-rule="evenodd" d="M42.6599 92.3499V78.0579H52.1799L53 79.7449H44.5601V84.1219H51.6399L52.46 85.7989H44.5601V90.6639H52.51L53.3301 92.3499H42.6599Z" fill="url(#paint20_linear_17_3)"/>
<path fill-rule="evenodd" clip-rule="evenodd" d="M55.98 92.3499V78.0579H65.5L66.3201 79.7449H57.8701V84.1219H64.96L65.78 85.7989H57.8701V90.6639H65.8301L66.6499 92.3499H55.98Z" fill="url(#paint21_linear_17_3)"/>
<path fill-rule="evenodd" clip-rule="evenodd" d="M69.2 90.9839V78.0579H72.05L75.4299 88.1779C75.7399 89.1199 75.9701 89.8249 76.1101 90.2929C76.2801 89.7729 76.5301 89.0099 76.8701 88.0019L80.3 78.0579H82.8401V90.7149C82.8406 91.1478 82.6692 91.5632 82.3635 91.8698C82.0579 92.1764 81.6429 92.3491 81.21 92.3499H81.02V80.3879L76.8601 92.3499H75.1599L71.02 80.1829V92.3499H70.5701C70.3903 92.3505 70.2122 92.3157 70.0459 92.2473C69.8796 92.1789 69.7286 92.0784 69.6013 91.9515C69.474 91.8246 69.3731 91.6737 69.3042 91.5077C69.2353 91.3416 69.1998 91.1636 69.2 90.9839Z" fill="url(#paint22_linear_17_3)"/>
<path fill-rule="evenodd" clip-rule="evenodd" d="M88.77 92.3499L94.26 78.0579H96.29L102.14 92.3499H101.08C100.759 92.3513 100.446 92.255 100.181 92.0736C99.917 91.8922 99.7142 91.6345 99.6001 91.3349L98.3201 88.0219H92.3501L91.1799 91.2319C91.0621 91.5591 90.8463 91.8421 90.5618 92.0421C90.2772 92.2422 89.9379 92.3497 89.5901 92.3499H88.77ZM92.8899 86.4809H97.74L96.25 82.5229C95.79 81.3229 95.45 80.3349 95.23 79.5589C95.045 80.4876 94.7875 81.4004 94.46 82.2889L92.8899 86.4809Z" fill="url(#paint23_linear_17_3)"/>
<path fill-rule="evenodd" clip-rule="evenodd" d="M103.39 92.3499V78.8779L105.15 78.0579V90.8859C105.149 91.2749 104.994 91.6475 104.718 91.922C104.442 92.1965 104.069 92.3504 103.68 92.3499H103.39Z" fill="url(#paint24_linear_17_3)"/>
<path fill-rule="evenodd" clip-rule="evenodd" d="M113.7 92.3499V78.8779L115.59 78.0579V83.9269H123.02V78.8779L124.91 78.0579V90.7999C124.909 91.2108 124.746 91.6047 124.455 91.8954C124.165 92.186 123.771 92.3498 123.36 92.3509H123.02V85.6139H115.59V90.7489C115.59 91.1732 115.421 91.5802 115.121 91.8802C114.821 92.1803 114.414 92.3489 113.99 92.3489H113.7V92.3499Z" fill="url(#paint25_linear_17_3)"/>
<path fill-rule="evenodd" clip-rule="evenodd" d="M137.44 78.8779L139.33 78.0579V86.3149C139.374 87.4761 139.208 88.6357 138.84 89.7379C138.501 90.6031 137.881 91.3294 137.08 91.7999C136.063 92.3716 134.906 92.6466 133.74 92.5939C132.606 92.6389 131.479 92.4011 130.46 91.9019C129.633 91.4719 128.985 90.7635 128.63 89.9019C128.225 88.7524 128.042 87.5366 128.09 86.3189V78.8819L129.98 78.0619V86.3099C129.935 87.2373 130.05 88.1655 130.32 89.0539C130.547 89.6313 130.968 90.112 131.51 90.4139C132.147 90.75 132.86 90.9147 133.58 90.8919C134.113 90.9451 134.652 90.8887 135.163 90.726C135.674 90.5633 136.146 90.2978 136.55 89.9459C137.14 89.3159 137.44 88.1039 137.44 86.3099V78.8819V78.8779Z" fill="url(#paint26_linear_17_3)"/>
<path fill-rule="evenodd" clip-rule="evenodd" d="M141.83 87.7579L143.62 87.6019C143.671 88.2278 143.873 88.8319 144.21 89.3619C144.574 89.8626 145.073 90.2485 145.65 90.4739C146.343 90.7648 147.089 90.9091 147.84 90.8979C148.491 90.9098 149.139 90.8006 149.75 90.5759C150.237 90.4075 150.664 90.101 150.98 89.6939C151.245 89.3406 151.388 88.9114 151.39 88.4699C151.398 88.0452 151.26 87.6306 151 87.2949C150.654 86.9027 150.208 86.6114 149.71 86.4519C148.876 86.174 148.028 85.9404 147.17 85.7519C146.219 85.561 145.293 85.2617 144.41 84.8599C143.792 84.5577 143.265 84.0987 142.88 83.5289C142.547 82.9956 142.374 82.3784 142.38 81.7499C142.378 81.03 142.59 80.3257 142.99 79.7269C143.429 79.0769 144.057 78.5781 144.79 78.2989C145.622 77.9644 146.513 77.7985 147.41 77.8109C148.368 77.7923 149.32 77.9664 150.21 78.3229C150.972 78.6225 151.625 79.148 152.08 79.8289C152.521 80.4988 152.763 81.2794 152.78 82.0809L150.97 82.2179C150.949 81.8281 150.851 81.4464 150.681 81.095C150.511 80.7436 150.272 80.4294 149.98 80.1709C149.255 79.6591 148.375 79.4142 147.49 79.4779C146.61 79.4043 145.73 79.6256 144.99 80.1069C144.747 80.2788 144.549 80.5059 144.412 80.7695C144.274 81.0331 144.202 81.3257 144.2 81.6229C144.195 81.8624 144.242 82.1002 144.339 82.3193C144.435 82.5385 144.579 82.7336 144.76 82.8909C145.631 83.4213 146.601 83.7677 147.61 83.9089C148.688 84.1193 149.746 84.4245 150.77 84.8209C151.51 85.1262 152.15 85.6306 152.62 86.2779C153.016 86.8811 153.221 87.5894 153.21 88.3109C153.207 89.0756 152.981 89.8228 152.56 90.4609C152.098 91.155 151.445 91.7003 150.68 92.0309C149.815 92.4152 148.876 92.6063 147.93 92.5909C146.82 92.6247 145.714 92.4325 144.68 92.0259C143.838 91.6785 143.121 91.0862 142.62 90.3259C142.12 89.5617 141.846 88.6713 141.83 87.7579Z" fill="url(#paint27_linear_17_3)"/>
<path fill-rule="evenodd" clip-rule="evenodd" d="M155.15 87.7579L156.94 87.6019C156.991 88.2278 157.193 88.8319 157.53 89.3619C157.888 89.8646 158.385 90.2513 158.96 90.4739C159.656 90.7657 160.405 90.9101 161.16 90.8979C161.811 90.9098 162.459 90.8006 163.07 90.5759C163.557 90.4075 163.984 90.101 164.3 89.6939C164.565 89.3406 164.709 88.9114 164.71 88.4699C164.718 88.0452 164.58 87.6306 164.32 87.2949C163.974 86.9027 163.528 86.6114 163.03 86.4519C162.193 86.1731 161.342 85.9394 160.48 85.7519C159.532 85.5597 158.61 85.2604 157.73 84.8599C157.109 84.5633 156.58 84.1032 156.2 83.5289C155.867 82.9956 155.694 82.3784 155.7 81.7499C155.698 81.03 155.91 80.3257 156.31 79.7269C156.749 79.0769 157.377 78.5781 158.11 78.2989C158.943 77.9644 159.833 77.7985 160.73 77.8109C161.688 77.7923 162.64 77.9664 163.53 78.3229C164.291 78.6253 164.942 79.1502 165.4 79.8289C165.836 80.5009 166.078 81.2801 166.1 82.0809L164.29 82.2179C164.269 81.8281 164.17 81.4464 164 81.095C163.831 80.7436 163.593 80.4294 163.3 80.1709C162.574 79.6604 161.695 79.4157 160.81 79.4779C159.93 79.4043 159.05 79.6256 158.31 80.1069C158.068 80.2788 157.869 80.5059 157.732 80.7695C157.595 81.0331 157.522 81.3257 157.52 81.6229C157.515 81.8624 157.562 82.1002 157.659 82.3193C157.755 82.5385 157.899 82.7336 158.08 82.8909C158.951 83.4213 159.92 83.7677 160.93 83.9089C162.008 84.1193 163.066 84.4245 164.09 84.8209C164.827 85.1263 165.464 85.6308 165.93 86.2779C166.333 86.8781 166.543 87.5878 166.53 88.3109C166.527 89.0756 166.301 89.8228 165.88 90.4609C165.416 91.1528 164.764 91.6975 164 92.0309C163.131 92.4152 162.19 92.6063 161.24 92.5909C160.13 92.6229 159.024 92.4307 157.99 92.0259C157.151 91.6782 156.437 91.0858 155.94 90.3259C155.439 89.5617 155.165 88.6713 155.15 87.7579Z" fill="url(#paint28_linear_17_3)"/>
<path fill-rule="evenodd" clip-rule="evenodd" d="M167.54 92.3499L173.03 78.0579H175.07L180.92 92.3499H179.89C179.559 92.351 179.236 92.2516 178.962 92.0648C178.689 91.878 178.479 91.6126 178.36 91.3039L177.1 88.0219H171.12L169.95 91.2449C169.833 91.5679 169.62 91.8473 169.339 92.045C169.058 92.2427 168.723 92.3491 168.38 92.3499H167.54ZM171.67 86.4809H176.51L175.02 82.5229C174.57 81.3229 174.23 80.3329 174.01 79.5589C173.82 80.4865 173.563 81.3989 173.24 82.2889L171.67 86.4809Z" fill="url(#paint29_linear_17_3)"/>
<path fill-rule="evenodd" clip-rule="evenodd" d="M182.75 92.3499V78.8779L184.64 78.0579V90.7579C184.64 90.9667 184.599 91.1734 184.519 91.3663C184.439 91.5592 184.322 91.7345 184.175 91.8821C184.027 92.0297 183.851 92.1467 183.658 92.2265C183.465 92.3062 183.259 92.3471 183.05 92.3468H182.75V92.3499Z" fill="url(#paint30_linear_17_3)"/>
<path fill-rule="evenodd" clip-rule="evenodd" d="M187.96 92.3499V78.0579H189.9L197.41 89.2789V78.8789L199.22 78.0589V92.3499H197.28L189.77 81.1189V90.8579C189.77 91.2531 189.613 91.6322 189.333 91.9119C189.054 92.1916 188.675 92.3491 188.28 92.3499H187.96Z" fill="url(#paint31_linear_17_3)"/>
<path fill-rule="evenodd" clip-rule="evenodd" d="M200.83 92.3499L206.32 78.0579H208.35L214.2 92.3499H213.19C212.854 92.3499 212.527 92.2482 212.25 92.0583C211.973 91.8683 211.761 91.599 211.64 91.2859L210.38 88.0219H204.41L203.21 91.3089C203.101 91.6138 202.9 91.8775 202.635 92.0638C202.37 92.2502 202.054 92.3501 201.73 92.3499H200.83ZM204.95 86.4809H209.8L208.31 82.5229C207.85 81.3229 207.51 80.3349 207.29 79.5589C207.105 80.4876 206.848 81.4004 206.52 82.2889L204.95 86.4809Z" fill="url(#paint32_linear_17_3)"/>
<path fill-rule="evenodd" clip-rule="evenodd" d="M215.69 92.3499V78.0579H217.64L225.14 89.2789V78.8789L226.96 78.0589V92.3499H225.02L217.51 81.1189V91.5299L215.69 92.3499Z" fill="url(#paint33_linear_17_3)"/>
<defs>
<linearGradient id="paint0_linear_17_3" x1="559966" y1="32171.5" x2="579267" y2="32171.5" gradientUnits="userSpaceOnUse">
<stop offset="1" stop-color="#C2986A"/>
</linearGradient>
<linearGradient id="paint1_linear_17_3" x1="28799.4" y1="638.834" x2="28747.7" y2="621.439" gradientUnits="userSpaceOnUse">
<stop offset="1" stop-color="#C2986A"/>
</linearGradient>
<linearGradient id="paint2_linear_17_3" x1="29884.2" y1="771.92" x2="29832.7" y2="754.609" gradientUnits="userSpaceOnUse">
<stop offset="1" stop-color="#C2986A"/>
</linearGradient>
<linearGradient id="paint3_linear_17_3" x1="17759" y1="934.512" x2="17736.7" y2="931.394" gradientUnits="userSpaceOnUse">
<stop offset="1" stop-color="#C2986A"/>
</linearGradient>
<linearGradient id="paint4_linear_17_3" x1="27090.3" y1="1048.86" x2="27039.7" y2="1038.69" gradientUnits="userSpaceOnUse">
<stop offset="1" stop-color="#C2986A"/>
</linearGradient>
<linearGradient id="paint5_linear_17_3" x1="85784.9" y1="4932.78" x2="85268.1" y2="4860.29" gradientUnits="userSpaceOnUse">
<stop offset="1" stop-color="#C2986A"/>
</linearGradient>
<linearGradient id="paint6_linear_17_3" x1="28494.4" y1="632.95" x2="28442.7" y2="615.57" gradientUnits="userSpaceOnUse">
<stop offset="1" stop-color="#C2986A"/>
</linearGradient>
<linearGradient id="paint7_linear_17_3" x1="27348.5" y1="1047.5" x2="27297.8" y2="1037.35" gradientUnits="userSpaceOnUse">
<stop offset="1" stop-color="#C2986A"/>
</linearGradient>
<linearGradient id="paint8_linear_17_3" x1="18025.6" y1="963.43" x2="18003.2" y2="960.295" gradientUnits="userSpaceOnUse">
<stop offset="1" stop-color="#C2986A"/>
</linearGradient>
<linearGradient id="paint9_linear_17_3" x1="47042.5" y1="1076.8" x2="46907.3" y2="1024.93" gradientUnits="userSpaceOnUse">
<stop offset="1" stop-color="#C2986A"/>
</linearGradient>
<linearGradient id="paint10_linear_17_3" x1="398082" y1="5084.14" x2="390262" y2="311.377" gradientUnits="userSpaceOnUse">
<stop offset="1" stop-color="#C2986A"/>
</linearGradient>
<linearGradient id="paint11_linear_17_3" x1="20954.5" y1="4940.38" x2="20925.2" y2="4939.45" gradientUnits="userSpaceOnUse">
<stop offset="1" stop-color="#C2986A"/>
</linearGradient>
<linearGradient id="paint12_linear_17_3" x1="18633.3" y1="967.909" x2="18611" y2="964.789" gradientUnits="userSpaceOnUse">
<stop offset="1" stop-color="#C2986A"/>
</linearGradient>
<linearGradient id="paint13_linear_17_3" x1="48728" y1="1075.33" x2="48592.8" y2="1023.43" gradientUnits="userSpaceOnUse">
<stop offset="1" stop-color="#C2986A"/>
</linearGradient>
<linearGradient id="paint14_linear_17_3" x1="30031.5" y1="634.851" x2="29980" y2="617.521" gradientUnits="userSpaceOnUse">
<stop offset="1" stop-color="#C2986A"/>
</linearGradient>
<linearGradient id="paint15_linear_17_3" x1="316266" y1="3959.41" x2="311599" y2="1081.35" gradientUnits="userSpaceOnUse">
<stop offset="1" stop-color="#C2986A"/>
</linearGradient>
<linearGradient id="paint16_linear_17_3" x1="49279.5" y1="946.613" x2="49144.3" y2="894.746" gradientUnits="userSpaceOnUse">
<stop offset="1" stop-color="#C2986A"/>
</linearGradient>
<linearGradient id="paint17_linear_17_3" x1="42581.8" y1="3644.69" x2="42453.1" y2="3638.37" gradientUnits="userSpaceOnUse">
<stop offset="1" stop-color="#C2986A"/>
</linearGradient>
<linearGradient id="paint18_linear_17_3" x1="50421.8" y1="3646.33" x2="50242.8" y2="3635.97" gradientUnits="userSpaceOnUse">
<stop offset="1" stop-color="#C2986A"/>
</linearGradient>
<linearGradient id="paint19_linear_17_3" x1="51661.5" y1="3645.7" x2="51475.6" y2="3634.71" gradientUnits="userSpaceOnUse">
<stop offset="1" stop-color="#C2986A"/>
</linearGradient>
<linearGradient id="paint20_linear_17_3" x1="40582.2" y1="3644.4" x2="40468.1" y2="3639.12" gradientUnits="userSpaceOnUse">
<stop offset="1" stop-color="#C2986A"/>
</linearGradient>
<linearGradient id="paint21_linear_17_3" x1="40736.8" y1="3644.4" x2="40622.5" y2="3639.12" gradientUnits="userSpaceOnUse">
<stop offset="1" stop-color="#C2986A"/>
</linearGradient>
<linearGradient id="paint22_linear_17_3" x1="52295.1" y1="3645.72" x2="52108.9" y2="3634.7" gradientUnits="userSpaceOnUse">
<stop offset="1" stop-color="#C2986A"/>
</linearGradient>
<linearGradient id="paint23_linear_17_3" x1="51538.2" y1="3645.59" x2="51359.2" y2="3635.23" gradientUnits="userSpaceOnUse">
<stop offset="1" stop-color="#C2986A"/>
</linearGradient>
<linearGradient id="paint24_linear_17_3" x1="6881.47" y1="3640.44" x2="6878.38" y2="3640.42" gradientUnits="userSpaceOnUse">
<stop offset="1" stop-color="#C2986A"/>
</linearGradient>
<linearGradient id="paint25_linear_17_3" x1="43506.4" y1="3644.88" x2="43380.5" y2="3638.77" gradientUnits="userSpaceOnUse">
<stop offset="1" stop-color="#C2986A"/>
</linearGradient>
<linearGradient id="paint26_linear_17_3" x1="43855.4" y1="3708.94" x2="43728.6" y2="3702.87" gradientUnits="userSpaceOnUse">
<stop offset="1" stop-color="#C2986A"/>
</linearGradient>
<linearGradient id="paint27_linear_17_3" x1="44516.3" y1="3767.51" x2="44386.6" y2="3761.34" gradientUnits="userSpaceOnUse">
<stop offset="1" stop-color="#C2986A"/>
</linearGradient>
<linearGradient id="paint28_linear_17_3" x1="44682.4" y1="3767.42" x2="44552.8" y2="3761.24" gradientUnits="userSpaceOnUse">
<stop offset="1" stop-color="#C2986A"/>
</linearGradient>
<linearGradient id="paint29_linear_17_3" x1="52709.1" y1="3645.59" x2="52530" y2="3635.21" gradientUnits="userSpaceOnUse">
<stop offset="1" stop-color="#C2986A"/>
</linearGradient>
<linearGradient id="paint30_linear_17_3" x1="7611.28" y1="3640.51" x2="7607.65" y2="3640.48" gradientUnits="userSpaceOnUse">
<stop offset="1" stop-color="#C2986A"/>
</linearGradient>
<linearGradient id="paint31_linear_17_3" x1="44611.2" y1="3644.64" x2="44484.3" y2="3638.46" gradientUnits="userSpaceOnUse">
<stop offset="1" stop-color="#C2986A"/>
</linearGradient>
<linearGradient id="paint32_linear_17_3" x1="53148.5" y1="3645.6" x2="52969.1" y2="3635.21" gradientUnits="userSpaceOnUse">
<stop offset="1" stop-color="#C2986A"/>
</linearGradient>
<linearGradient id="paint33_linear_17_3" x1="44991.1" y1="3644.66" x2="44863.8" y2="3638.44" gradientUnits="userSpaceOnUse">
<stop offset="1" stop-color="#C2986A"/>
</linearGradient>
</defs>
</svg>
